<svg xmlns="http://www.w3.org/2000/svg" viewBox="0 0 90.02 71.17"><defs><style>.cls-1{fill:#5a5a5a;}.cls-2{fill:#828282;}</style></defs><title>Ativo 33</title><g id="Camada_2" data-name="Camada 2"><g id="Camada_1-2" data-name="Camada 1"><path class="cls-1" d="M18.11,15.55V26.28a.73.73,0,0,1-.73.73H13.61a.73.73,0,0,1-.73-.73V15.55c0-2.17-.81-3.36-3.32-3.36A6.67,6.67,0,0,0,5.22,14V26.28a.73.73,0,0,1-.73.73H.73A.73.73,0,0,1,0,26.28V.72A.73.73,0,0,1,.73,0H4.49a.72.72,0,0,1,.73.72V9.58a8.28,8.28,0,0,1,5.46-2.07C15.56,7.51,18.11,9.82,18.11,15.55Z"/><path class="cls-1" d="M52.79,17.48c0,6.78-3.67,10.1-8.69,10.1a8.46,8.46,0,0,1-5.22-1.93v7.41a.73.73,0,0,1-.72.73H34.39a.73.73,0,0,1-.73-.73V8.64a.73.73,0,0,1,.73-.72h3.77a.72.72,0,0,1,.72.72v.7a8.32,8.32,0,0,1,5.22-2C49.12,7.38,52.79,10.73,52.79,17.48Zm-5.43,0c0-3.53-1.46-5.43-4.34-5.43a7.06,7.06,0,0,0-4.14,1.53v7.8A7.17,7.17,0,0,0,43,22.94C45.9,22.94,47.36,21,47.36,17.48Z"/><path class="cls-1" d="M67.22,23.21a10.79,10.79,0,0,0,4.6-1.09.72.72,0,0,1,1,.43l.93,2.71a.73.73,0,0,1-.37.89,14.24,14.24,0,0,1-6.82,1.43c-6.68,0-10.24-4.13-10.24-10.13,0-6.58,4.14-10.07,9.22-10.07,5.33,0,8.75,3.15,8.75,9.46v1.34a.72.72,0,0,1-.73.72H61.86C62.2,21.34,63.59,23.21,67.22,23.21ZM62,14.94h7.26c-.25-2.34-1.37-3.38-3.49-3.38C63.83,11.56,62.47,12.46,62,14.94Z"/><path class="cls-1" d="M90,8.25v3.22a.74.74,0,0,1-.71.73,8.93,8.93,0,0,0-1.7.18,9.94,9.94,0,0,0-3.69,1.78V26.28a.73.73,0,0,1-.73.73H79.42a.73.73,0,0,1-.72-.73V8.64a.72.72,0,0,1,.72-.72h3.77a.73.73,0,0,1,.73.72V9.75a8.4,8.4,0,0,1,4.53-2.2l.83,0A.72.72,0,0,1,90,8.25Z"/><path class="cls-1" d="M23.88,7.95h3.77a.72.72,0,0,1,.72.72V26.31a.72.72,0,0,1-.72.72H23.88a.73.73,0,0,1-.73-.73V8.68A.73.73,0,0,1,23.88,7.95Z"/><path class="cls-1" d="M28.19,1.37a3.84,3.84,0,0,0-2.4-.81h-.05a3.81,3.81,0,0,0-2.39.81.5.5,0,0,0-.18.36v2.7a.5.5,0,0,0,.18.36,3.81,3.81,0,0,0,2.39.81h.05a3.84,3.84,0,0,0,2.4-.81.53.53,0,0,0,.17-.36V1.73A.53.53,0,0,0,28.19,1.37Z"/><path class="cls-2" d="M22.14,49.52c0-2.57,1.4-4.67,4.39-4.67a5.31,5.31,0,0,1,2.18.44v1.05a4.92,4.92,0,0,0-2.16-.48c-2,0-3.24,1.55-3.23,3.66s1.15,3.67,3.21,3.67a5.51,5.51,0,0,0,2.52-.69l.37,1a6.51,6.51,0,0,1-2.89.73C23.57,54.2,22.14,52.29,22.14,49.52Z"/><path class="cls-2" d="M33.86,53.2a4.45,4.45,0,0,0,1.89-.48l.35.92a4.93,4.93,0,0,1-2.34.56c-2.13,0-3.27-1.43-3.27-3.49,0-2.26,1.34-3.45,3-3.45s2.76,1.06,2.76,3.11v.44H31.66C31.69,52.12,32.24,53.2,33.86,53.2Zm-2.13-3.33h3.34c-.09-1.11-.6-1.62-1.59-1.62A1.69,1.69,0,0,0,31.73,49.87Z"/><path class="cls-2" d="M43.32,50.05V54H42.2V50.05c0-1.22-.35-1.7-1.42-1.7a2.88,2.88,0,0,0-1.85.8V54H37.82V47.45h1.11v.69a3.1,3.1,0,0,1,2-.84C42.51,47.3,43.32,48.05,43.32,50.05Z"/><path class="cls-2" d="M46.72,48.56V52.3c0,.63.16.82.7.82a2.91,2.91,0,0,0,.76-.1v1a4.12,4.12,0,0,1-1,.12c-1.22,0-1.62-.48-1.62-1.6v-4h-.85v-1h.85V45.28h1.11v2.25h1.52v1Z"/><path class="cls-2" d="M53.16,47.3v1.05h-.27a3.12,3.12,0,0,0-2,.81V54H49.8V47.45h1.11v.73a3,3,0,0,1,2-.88Z"/><path class="cls-2" d="M59.08,50.21V54H58v-.65a2.58,2.58,0,0,1-1.87.81,2.1,2.1,0,0,1-2.19-2.23,2.17,2.17,0,0,1,2.45-2.24,3.33,3.33,0,0,1,1.6.4c0-1-.19-1.64-1.54-1.64h-.88v-1H56.6C58.79,47.45,59.08,48.64,59.08,50.21ZM58,52.43V50.94a3.16,3.16,0,0,0-1.45-.33c-.72,0-1.48.28-1.48,1.31a1.15,1.15,0,0,0,1.21,1.27A2.69,2.69,0,0,0,58,52.43Z"/><path class="cls-2" d="M60.92,52.6V44H62V52.3c0,.63.15.82.71.82a2.73,2.73,0,0,0,.59-.07v1a5.18,5.18,0,0,1-.75.08C61.41,54.15,60.92,53.72,60.92,52.6Z"/><path class="cls-2" d="M21.81,58.18v10H20.7v-.59a3,3,0,0,1-1.9.79c-1.7,0-2.91-1.14-2.91-3.47s1.21-3.47,2.91-3.47a3,3,0,0,1,1.9.81V58.18ZM20.7,66.64v-3.4a2.77,2.77,0,0,0-1.76-.74c-1.24,0-1.89.84-1.89,2.43s.65,2.44,1.89,2.44A2.87,2.87,0,0,0,20.7,66.64Z"/><path class="cls-2" d="M26.9,67.41a4.32,4.32,0,0,0,1.89-.49l.35.92a4.93,4.93,0,0,1-2.34.56c-2.13,0-3.27-1.42-3.27-3.48,0-2.26,1.34-3.46,3-3.46s2.76,1.07,2.76,3.12V65H24.7C24.73,66.33,25.28,67.41,26.9,67.41Zm-2.13-3.33h3.34c-.09-1.12-.6-1.62-1.59-1.62A1.68,1.68,0,0,0,24.77,64.08Z"/><path class="cls-2" d="M38,64.41V68.2H36.85v-.65a2.54,2.54,0,0,1-1.87.8,2.09,2.09,0,0,1-2.19-2.22,2.17,2.17,0,0,1,2.45-2.24,3.38,3.38,0,0,1,1.6.39c0-1-.19-1.64-1.54-1.64h-.88v-1h1.06C37.67,61.65,38,62.85,38,64.41Zm-1.11,2.23v-1.5a3.28,3.28,0,0,0-1.44-.33c-.72,0-1.48.29-1.48,1.32a1.14,1.14,0,0,0,1.21,1.26A2.65,2.65,0,0,0,36.85,66.64Z"/><path class="cls-2" d="M43.16,61.51v1h-.27a3.05,3.05,0,0,0-2,.82V68.2H39.8V61.65h1.11v.73a3,3,0,0,1,2-.87Z"/><path class="cls-2" d="M45.92,62.76V66.5c0,.63.15.82.7.82a3,3,0,0,0,.76-.09v1a4.19,4.19,0,0,1-1,.12c-1.22,0-1.62-.47-1.62-1.6v-4H44v-1h.86V59.48h1.11v2.25h1.51v1Z"/><path class="cls-2" d="M49,58.63h1.11v1.79H49Zm0,3h1.11V68.2H49Z"/><path class="cls-2" d="M57.73,61.65v6.68c0,1.61-.58,2.84-2.79,2.84a5.84,5.84,0,0,1-2.44-.43v-1.1a5.32,5.32,0,0,0,2.09.5c1.78,0,2-.72,2-1.93v-.84a3,3,0,0,1-1.89.79c-1.71,0-2.91-1.12-2.91-3.35s1.21-3.35,2.91-3.35a3,3,0,0,1,1.89.81v-.62ZM56.62,66.4V63.24a2.7,2.7,0,0,0-1.74-.74c-1.26,0-1.91.89-1.91,2.31s.65,2.32,1.91,2.32A2.74,2.74,0,0,0,56.62,66.4Z"/><path class="cls-2" d="M59.28,64.93c0-1.92,1.08-3.47,3.23-3.47s3.22,1.55,3.22,3.47-1.06,3.47-3.22,3.47S59.28,66.86,59.28,64.93Zm5.29,0c0-1.41-.71-2.45-2.06-2.45s-2.07,1-2.07,2.45.72,2.46,2.07,2.46S64.57,66.34,64.57,64.93Z"/><path class="cls-2" d="M67,67.88v-1.1a4.86,4.86,0,0,0,2.44.63c.94,0,1.24-.44,1.24-1s-.35-.8-1-1l-.77-.19c-1-.23-1.78-.68-1.78-1.93s.76-1.88,2.29-1.88a5.15,5.15,0,0,1,2.07.43v1a4.6,4.6,0,0,0-2-.47c-.9,0-1.19.42-1.19.85,0,.59.42.79,1,.93l.78.18c1,.26,1.8.65,1.8,2s-1,2-2.38,2A5.22,5.22,0,0,1,67,67.88Z"/><path class="cls-2" d="M22.14,49.52c0-2.57,1.4-4.67,4.39-4.67a5.31,5.31,0,0,1,2.18.44v1.05a4.92,4.92,0,0,0-2.16-.48c-2,0-3.24,1.55-3.23,3.66s1.15,3.67,3.21,3.67a5.51,5.51,0,0,0,2.52-.69l.37,1a6.51,6.51,0,0,1-2.89.73C23.57,54.2,22.14,52.29,22.14,49.52Z"/><path class="cls-2" d="M33.86,53.2a4.45,4.45,0,0,0,1.89-.48l.35.92a4.93,4.93,0,0,1-2.34.56c-2.13,0-3.27-1.43-3.27-3.49,0-2.26,1.34-3.45,3-3.45s2.76,1.06,2.76,3.11v.44H31.66C31.69,52.12,32.24,53.2,33.86,53.2Zm-2.13-3.33h3.34c-.09-1.11-.6-1.62-1.59-1.62A1.69,1.69,0,0,0,31.73,49.87Z"/><path class="cls-2" d="M43.32,50.05V54H42.2V50.05c0-1.22-.35-1.7-1.42-1.7a2.88,2.88,0,0,0-1.85.8V54H37.82V47.45h1.11v.69a3.1,3.1,0,0,1,2-.84C42.51,47.3,43.32,48.05,43.32,50.05Z"/><path class="cls-2" d="M46.72,48.56V52.3c0,.63.16.82.7.82a2.91,2.91,0,0,0,.76-.1v1a4.12,4.12,0,0,1-1,.12c-1.22,0-1.62-.48-1.62-1.6v-4h-.85v-1h.85V45.28h1.11v2.25h1.52v1Z"/><path class="cls-2" d="M53.16,47.3v1.05h-.27a3.12,3.12,0,0,0-2,.81V54H49.8V47.45h1.11v.73a3,3,0,0,1,2-.88Z"/><path class="cls-2" d="M59.08,50.21V54H58v-.65a2.58,2.58,0,0,1-1.87.81,2.1,2.1,0,0,1-2.19-2.23,2.17,2.17,0,0,1,2.45-2.24,3.33,3.33,0,0,1,1.6.4c0-1-.19-1.64-1.54-1.64h-.88v-1H56.6C58.79,47.45,59.08,48.64,59.08,50.21ZM58,52.43V50.94a3.16,3.16,0,0,0-1.45-.33c-.72,0-1.48.28-1.48,1.31a1.15,1.15,0,0,0,1.21,1.27A2.69,2.69,0,0,0,58,52.43Z"/><path class="cls-2" d="M60.92,52.6V44H62V52.3c0,.63.15.82.71.82a2.73,2.73,0,0,0,.59-.07v1a5.18,5.18,0,0,1-.75.08C61.41,54.15,60.92,53.72,60.92,52.6Z"/><path class="cls-2" d="M21.81,58.18v10H20.7v-.59a3,3,0,0,1-1.9.79c-1.7,0-2.91-1.14-2.91-3.47s1.21-3.47,2.91-3.47a3,3,0,0,1,1.9.81V58.18ZM20.7,66.64v-3.4a2.77,2.77,0,0,0-1.76-.74c-1.24,0-1.89.84-1.89,2.43s.65,2.44,1.89,2.44A2.87,2.87,0,0,0,20.7,66.64Z"/><path class="cls-2" d="M26.9,67.41a4.32,4.32,0,0,0,1.89-.49l.35.92a4.93,4.93,0,0,1-2.34.56c-2.13,0-3.27-1.42-3.27-3.48,0-2.26,1.34-3.46,3-3.46s2.76,1.07,2.76,3.12V65H24.7C24.73,66.33,25.28,67.41,26.9,67.41Zm-2.13-3.33h3.34c-.09-1.12-.6-1.62-1.59-1.62A1.68,1.68,0,0,0,24.77,64.08Z"/><path class="cls-2" d="M38,64.41V68.2H36.85v-.65a2.54,2.54,0,0,1-1.87.8,2.09,2.09,0,0,1-2.19-2.22,2.17,2.17,0,0,1,2.45-2.24,3.38,3.38,0,0,1,1.6.39c0-1-.19-1.64-1.54-1.64h-.88v-1h1.06C37.67,61.65,38,62.85,38,64.41Zm-1.11,2.23v-1.5a3.28,3.28,0,0,0-1.44-.33c-.72,0-1.48.29-1.48,1.32a1.14,1.14,0,0,0,1.21,1.26A2.65,2.65,0,0,0,36.85,66.64Z"/><path class="cls-2" d="M43.16,61.51v1h-.27a3.05,3.05,0,0,0-2,.82V68.2H39.8V61.65h1.11v.73a3,3,0,0,1,2-.87Z"/><path class="cls-2" d="M45.92,62.76V66.5c0,.63.15.82.7.82a3,3,0,0,0,.76-.09v1a4.19,4.19,0,0,1-1,.12c-1.22,0-1.62-.47-1.62-1.6v-4H44v-1h.86V59.48h1.11v2.25h1.51v1Z"/><path class="cls-2" d="M49,58.63h1.11v1.79H49Zm0,3h1.11V68.2H49Z"/><path class="cls-2" d="M57.73,61.65v6.68c0,1.61-.58,2.84-2.79,2.84a5.84,5.84,0,0,1-2.44-.43v-1.1a5.32,5.32,0,0,0,2.09.5c1.78,0,2-.72,2-1.93v-.84a3,3,0,0,1-1.89.79c-1.71,0-2.91-1.12-2.91-3.35s1.21-3.35,2.91-3.35a3,3,0,0,1,1.89.81v-.62ZM56.62,66.4V63.24a2.7,2.7,0,0,0-1.74-.74c-1.26,0-1.91.89-1.91,2.31s.65,2.32,1.91,2.32A2.74,2.74,0,0,0,56.62,66.4Z"/><path class="cls-2" d="M59.28,64.93c0-1.92,1.08-3.47,3.23-3.47s3.22,1.55,3.22,3.47-1.06,3.47-3.22,3.47S59.28,66.86,59.28,64.93Zm5.29,0c0-1.41-.71-2.45-2.06-2.45s-2.07,1-2.07,2.45.72,2.46,2.07,2.46S64.57,66.34,64.57,64.93Z"/><path class="cls-2" d="M67,67.88v-1.1a4.86,4.86,0,0,0,2.44.63c.94,0,1.24-.44,1.24-1s-.35-.8-1-1l-.77-.19c-1-.23-1.78-.68-1.78-1.93s.76-1.88,2.29-1.88a5.15,5.15,0,0,1,2.07.43v1a4.6,4.6,0,0,0-2-.47c-.9,0-1.19.42-1.19.85,0,.59.42.79,1,.93l.78.18c1,.26,1.8.65,1.8,2s-1,2-2.38,2A5.22,5.22,0,0,1,67,67.88Z"/></g></g></svg>