<svg xmlns="http://www.w3.org/2000/svg" viewBox="0 0 176.239 158.631"><defs><style>.a{fill:#6a4b9d;}.b{fill:#a478b8;}.c{fill:#5a5a5a;}</style></defs><g transform="translate(48.692)"><g transform="translate(21.437 22.968)"><rect class="a" width="12.249" height="22.049"/></g><g transform="translate(45.323 22.968)"><rect class="a" width="12.249" height="22.049"/></g><g transform="translate(11.94)"><path class="b" d="M94.877,17.455H86.149c0-1.991-.459-8.728-5.819-8.728H54.148c-5.359,0-5.818,6.737-5.818,8.728H39.6C39.448,8.728,44.042,0,54.148,0H80.331C90.283,0,94.877,8.728,94.877,17.455Z" transform="translate(-39.598)"/></g><g transform="translate(0 22.968)"><path class="a" d="M99.631,15c0,3.981-.306,11.178-.766,16.384-.612,5.972-1.072,12.1-2.45,17.149-2.909,1.531-13.168,2.909-25.111,2.909h0c-11.943,0-22.2-1.378-25.111-2.909-1.378-5.053-1.837-11.178-2.45-17.149-.459-5.206-.766-12.4-.766-16.384H31.8c0,4.134.306,10.718.766,16.077.612,6.89,1.378,15.159,3.215,21.437,1.684,5.972,9.493,7.809,16.843,8.881A157.035,157.035,0,0,0,71.458,62.62h0a157.035,157.035,0,0,0,18.834-1.225c7.35-1.072,15.006-2.909,16.843-8.881,1.837-6.278,2.6-14.546,3.215-21.437.459-5.512.766-11.943.766-16.077Z" transform="translate(-31.8 -15)"/></g></g><g transform="translate(0 92.637)"><path class="c" d="M35.523,90.971v20.977a1.372,1.372,0,0,1-1.378,1.378H26.8a1.372,1.372,0,0,1-1.378-1.378V90.971c0-4.287-1.531-6.584-6.431-6.584-3.062,0-5.818,1.225-8.575,3.522v24.04a1.372,1.372,0,0,1-1.378,1.378H1.378A1.372,1.372,0,0,1,0,111.948V61.878A1.372,1.372,0,0,1,1.378,60.5h7.35a1.372,1.372,0,0,1,1.378,1.378v17.3A16.1,16.1,0,0,1,20.824,75.2C30.471,75.2,35.523,79.64,35.523,90.971Z" transform="translate(0 -60.5)"/><g transform="translate(65.994 14.393)"><path class="c" d="M80.461,89.652c0,13.321-7.2,19.752-17,19.752a16.972,16.972,0,0,1-10.259-3.828v14.546a1.372,1.372,0,0,1-1.378,1.378h-7.35a1.372,1.372,0,0,1-1.378-1.378V72.35a1.372,1.372,0,0,1,1.378-1.378h7.35a1.372,1.372,0,0,1,1.378,1.378v1.378A16.073,16.073,0,0,1,63.465,69.9C73.264,69.9,80.461,76.484,80.461,89.652Zm-10.565,0c0-6.89-2.909-10.565-8.422-10.565a13.679,13.679,0,0,0-8.115,3.062V97.461a13.679,13.679,0,0,0,8.115,3.062C66.986,100.371,69.9,96.7,69.9,89.652Z" transform="translate(-43.1 -69.9)"/></g><g transform="translate(110.398 14.24)"><path class="c" d="M93.383,101.036a20.461,20.461,0,0,0,9.034-2.144,1.519,1.519,0,0,1,1.991.766l1.837,5.359a1.364,1.364,0,0,1-.766,1.684c-4.134,2.144-8.115,2.756-13.321,2.756-13.015,0-20.059-8.115-20.059-19.905C72.1,76.69,80.215,69.8,90.168,69.8c10.412,0,17.149,6.125,17.149,18.527v2.6a1.372,1.372,0,0,1-1.378,1.378H82.818C83.584,97.361,86.187,101.036,93.383,101.036ZM83.125,84.806h14.24c-.459-4.594-2.6-6.584-6.89-6.584C86.646,78.222,84.043,79.906,83.125,84.806Z" transform="translate(-72.1 -69.8)"/></g><g transform="translate(154.19 14.699)"><path class="c" d="M122.749,71.478v6.278a1.372,1.372,0,0,1-1.378,1.378A25.039,25.039,0,0,0,118,79.44a18.59,18.59,0,0,0-7.2,3.522V106.7a1.372,1.372,0,0,1-1.378,1.378h-7.35A1.372,1.372,0,0,1,100.7,106.7V72.244a1.372,1.372,0,0,1,1.378-1.378h7.35a1.372,1.372,0,0,1,1.378,1.378v2.144c2.909-2.45,5.665-3.981,8.881-4.287h1.684A1.372,1.372,0,0,1,122.749,71.478Z" transform="translate(-100.7 -70.1)"/></g><g transform="translate(45.323 1.072)"><g transform="translate(0 14.393)"><path class="c" d="M30.978,70.6h7.35a1.372,1.372,0,0,1,1.378,1.378v34.6a1.372,1.372,0,0,1-1.378,1.378h-7.35a1.372,1.372,0,0,1-1.378-1.378V72.131A1.414,1.414,0,0,1,30.978,70.6Z" transform="translate(-29.6 -70.6)"/></g><g transform="translate(0.153)"><path class="c" d="M39.5,62.731A7.357,7.357,0,0,0,34.753,61.2h0a8.744,8.744,0,0,0-4.747,1.531,1.17,1.17,0,0,0-.306.766V68.7a1.617,1.617,0,0,0,.306.766A7.357,7.357,0,0,0,34.753,71h0A8.744,8.744,0,0,0,39.5,69.468a1.17,1.17,0,0,0,.306-.766V63.5A1.17,1.17,0,0,0,39.5,62.731Z" transform="translate(-29.7 -61.2)"/></g></g></g></svg>