<?xml version="1.0" encoding="utf-8"?>
<!-- Generator: Adobe Illustrator 22.1.0, SVG Export Plug-In . SVG Version: 6.00 Build 0)  -->
<svg version="1.1" id="Camada_1" xmlns="http://www.w3.org/2000/svg" xmlns:xlink="http://www.w3.org/1999/xlink" x="0px" y="0px"
	 viewBox="0 0 176.9 132.9" style="enable-background:new 0 0 176.9 132.9;" xml:space="preserve">
<style type="text/css">
	.st0{fill:#5A5A5A;}
	.st1{fill:#818181;}
</style>
<g transform="translate(0 92.977)">
	<path class="st0" d="M35.6-62.4v21.1c0,0.8-0.6,1.4-1.4,1.4c0,0,0,0,0,0h-7.4c-0.8,0-1.4-0.6-1.4-1.4c0,0,0,0,0,0v-21.1
		c0-4.3-1.5-6.6-6.5-6.6c-3.1,0-5.8,1.2-8.6,3.5v24.1c0,0.8-0.6,1.4-1.4,1.4c0,0,0,0,0,0H1.3c-0.8,0-1.4-0.6-1.4-1.4c0,0,0,0,0,0
		v-50.3c0-0.8,0.6-1.4,1.4-1.4c0,0,0,0,0,0h7.4c0.8,0,1.4,0.6,1.4,1.4c0,0,0,0,0,0v17.4c3-2.6,6.8-4,10.8-4
		C30.5-78.2,35.6-73.8,35.6-62.4z"/>
	<g transform="translate(66.236 14.446)">
		<path class="st0" d="M37.4-73.2c0,13.4-7.2,19.8-17.1,19.8c-3.8-0.1-7.4-1.5-10.3-3.8v14.6c0,0.8-0.6,1.4-1.4,1.4c0,0,0,0,0,0H1.3
			c-0.8,0-1.4-0.6-1.4-1.4c0,0,0,0,0,0v-47.9c0-0.8,0.6-1.4,1.4-1.4c0,0,0,0,0,0h7.4c0.8,0,1.4,0.6,1.4,1.4c0,0,0,0,0,0v1.4
			c2.9-2.4,6.5-3.8,10.3-3.8C30.2-93,37.4-86.4,37.4-73.2z M26.8-73.2c0-6.9-2.9-10.6-8.5-10.6c-3,0.1-5.8,1.2-8.1,3.1v15.4
			c2.3,1.9,5.2,3,8.1,3.1C23.9-62.4,26.8-66.1,26.8-73.2L26.8-73.2z"/>
	</g>
	<g transform="translate(110.804 14.292)">
		<path class="st0" d="M21.3-61.6c3.1,0,6.2-0.7,9.1-2.2c0.8-0.3,1.7,0,2,0.8l1.8,5.4c0.2,0.7-0.1,1.4-0.8,1.7
			c-4.1,2.2-8.1,2.8-13.4,2.8c-13.1,0-20.1-8.1-20.1-20C-0.1-86.1,8.1-93,18.1-93c10.4,0,17.2,6.1,17.2,18.6v2.6
			c0,0.8-0.6,1.4-1.4,1.4c0,0,0,0,0,0H10.7C11.4-65.3,14.1-61.6,21.3-61.6z M11-77.9h14.3c-0.5-4.6-2.6-6.6-6.9-6.6
			C14.5-84.5,11.9-82.8,11-77.9L11-77.9z"/>
	</g>
	<g transform="translate(154.757 14.753)">
		<path class="st0" d="M22.1-91.6v6.3c0,0.8-0.6,1.4-1.4,1.4c0,0,0,0,0,0c-1.1,0-2.3,0.1-3.4,0.3c-2.6,0.6-5.1,1.8-7.2,3.5v23.8
			c0,0.8-0.6,1.4-1.4,1.4c0,0,0,0,0,0H1.3c-0.8,0-1.4-0.6-1.4-1.4c0,0,0,0,0,0v-34.6c0-0.8,0.6-1.4,1.4-1.4c0,0,0,0,0,0h7.4
			c0.8,0,1.4,0.6,1.4,1.4c0,0,0,0,0,0v2.1c2.9-2.5,5.7-4,8.9-4.3h1.7C21.4-93,22-92.4,22.1-91.6C22.1-91.6,22.1-91.6,22.1-91.6z"/>
	</g>
	<g transform="translate(45.49 1.076)">
		<g transform="translate(0 14.446)">
			<path class="st0" d="M1.3-93h7.4c0.8,0,1.4,0.6,1.4,1.4c0,0,0,0,0,0v34.7c0,0.8-0.6,1.4-1.4,1.4c0,0,0,0,0,0H1.3
				c-0.8,0-1.4-0.6-1.4-1.4c0,0,0,0,0,0v-34.6C-0.1-92.2,0.4-92.9,1.3-93C1.2-93,1.3-93,1.3-93z"/>
		</g>
		<g transform="translate(0.154)">
			<path class="st0" d="M9.8-91.4C8.4-92.5,6.7-93,5-93l0,0c-1.7,0-3.4,0.6-4.8,1.5C0-91.2-0.1-91-0.1-90.7v5.2
				c0,0.3,0.1,0.5,0.3,0.8c1.4,1.1,3,1.6,4.8,1.5l0,0c1.7,0,3.4-0.6,4.8-1.5c0.2-0.2,0.3-0.5,0.3-0.8v-5.2C10.1-91,10-91.2,9.8-91.4
				z"/>
		</g>
	</g>
</g>
<g>
	<g>
		<path class="st1" d="M55.9,99.5c0,1.8-0.5,3.1-1.6,3.9c-1.1,0.9-2.8,1.3-5.3,1.3h-6.6V85.5h6.6c2.2,0,3.8,0.4,4.7,1.3
			c0.9,0.8,1.4,2.1,1.4,3.9c0,1-0.2,1.9-0.6,2.6c-0.4,0.7-1.1,1.3-2,1.7C54.8,95.7,55.9,97.2,55.9,99.5z M44.9,94h4.2
			c2.4,0,3.6-1.1,3.6-3.2c0-1.2-0.3-2-0.8-2.5c-0.5-0.5-1.5-0.7-2.8-0.7h-4.2V94z M52.3,96.9c-0.7-0.5-1.8-0.8-3.2-0.8h-4.2v6.5h4.2
			c1.6,0,2.7-0.3,3.4-0.8c0.7-0.5,1-1.3,1-2.5S53,97.4,52.3,96.9z"/>
		<path class="st1" d="M67.6,91.4c0.8,0.5,1.3,1.2,1.5,2c0.3,0.8,0.4,1.9,0.4,3.1v8.1h-2.4v-1.4c-0.6,0.6-1.3,1-1.9,1.3
			c-0.6,0.3-1.3,0.4-2.1,0.4c-0.9,0-1.7-0.2-2.4-0.6c-0.7-0.4-1.3-0.9-1.7-1.6c-0.4-0.7-0.6-1.6-0.6-2.5c0-1.5,0.5-2.7,1.4-3.5
			c0.9-0.8,2.2-1.3,3.8-1.3c1.3,0,2.4,0.3,3.4,0.8c0-0.8-0.1-1.5-0.3-2c-0.2-0.5-0.5-0.9-0.9-1.1c-0.5-0.3-1.2-0.4-2.1-0.4H62v-2.1
			h2.2C65.7,90.7,66.8,90.9,67.6,91.4z M65.3,102.5c0.6-0.3,1.2-0.7,1.9-1.2v-3.2c-0.9-0.5-2-0.7-3.1-0.7c-0.9,0-1.6,0.2-2.2,0.6
			c-0.6,0.4-0.9,1.1-0.9,2.2c0,0.9,0.3,1.6,0.8,2.1c0.5,0.4,1.1,0.6,1.8,0.6C64.1,102.9,64.7,102.8,65.3,102.5z"/>
		<path class="st1" d="M74.9,104.8c-0.8-0.2-1.6-0.5-2.5-0.9v-2.3c1.6,0.9,3.3,1.3,5.2,1.3c0.9,0,1.6-0.2,2-0.6
			c0.4-0.4,0.6-0.9,0.6-1.5c0-0.6-0.2-1.1-0.5-1.3c-0.3-0.3-0.9-0.5-1.6-0.7l-1.6-0.4c-1.2-0.3-2.1-0.7-2.8-1.4
			c-0.7-0.6-1-1.5-1-2.8c0-1.3,0.4-2.2,1.2-3c0.8-0.7,2-1.1,3.6-1.1c0.8,0,1.6,0.1,2.3,0.2c0.7,0.2,1.4,0.4,2.1,0.7v2.2
			c-0.7-0.3-1.4-0.6-2-0.7c-0.7-0.2-1.4-0.3-2.3-0.3c-0.9,0-1.5,0.2-1.9,0.5c-0.4,0.3-0.6,0.8-0.6,1.3c0,0.6,0.2,1,0.5,1.3
			c0.3,0.3,0.8,0.5,1.5,0.7l1.7,0.4c0.8,0.2,1.5,0.5,2.1,0.8c0.5,0.3,1,0.7,1.3,1.3c0.3,0.5,0.5,1.3,0.5,2.2c0,1.4-0.5,2.4-1.4,3.2
			c-0.9,0.7-2.2,1.1-3.7,1.1C76.6,105.1,75.7,105,74.9,104.8z"/>
		<path class="st1" d="M89.2,101.6c0.7,0.9,1.9,1.4,3.5,1.4c1.2,0,2.6-0.3,4-1l0.7,2c-1.5,0.8-3.2,1.2-5,1.2c-1.5,0-2.7-0.3-3.8-0.9
			c-1-0.6-1.8-1.5-2.4-2.6c-0.5-1.1-0.8-2.4-0.8-3.9c0-1.6,0.3-2.9,0.8-4c0.6-1.1,1.3-1.9,2.3-2.5c1-0.6,2-0.9,3.2-0.9
			c1.8,0,3.3,0.6,4.3,1.7c1,1.1,1.6,2.8,1.6,4.9v0.9H88C88.1,99.4,88.4,100.6,89.2,101.6z M88.2,95.9h7.1c-0.1-1.2-0.4-2-1-2.6
			c-0.6-0.6-1.4-0.8-2.4-0.8C89.8,92.4,88.6,93.6,88.2,95.9z"/>
		<path class="st1" d="M118.5,83.3v21.4h-2.4v-1.3c-1.3,1.1-2.7,1.7-4,1.7c-1.9,0-3.4-0.6-4.5-1.9s-1.7-3.1-1.7-5.5
			c0-2.4,0.6-4.2,1.7-5.5s2.6-1.9,4.5-1.9c1.3,0,2.7,0.6,4,1.7v-8.7H118.5z M116.1,101.3v-7.2c-1.2-1-2.5-1.6-3.7-1.6
			c-1.3,0-2.3,0.4-3,1.3c-0.7,0.9-1,2.2-1,3.9c0,1.7,0.3,3,1,3.9c0.7,0.9,1.7,1.3,3,1.3C113.6,102.9,114.8,102.4,116.1,101.3z"/>
		<path class="st1" d="M125.8,101.6c0.7,0.9,1.9,1.4,3.5,1.4c1.2,0,2.6-0.3,4-1l0.7,2c-1.5,0.8-3.2,1.2-5,1.2
			c-1.5,0-2.7-0.3-3.8-0.9c-1-0.6-1.8-1.5-2.4-2.6c-0.5-1.1-0.8-2.4-0.8-3.9c0-1.6,0.3-2.9,0.8-4c0.6-1.1,1.3-1.9,2.3-2.5
			c1-0.6,2-0.9,3.2-0.9c1.8,0,3.3,0.6,4.3,1.7c1,1.1,1.6,2.8,1.6,4.9v0.9h-9.8C124.7,99.4,125.1,100.6,125.8,101.6z M124.8,95.9h7.1
			c-0.1-1.2-0.4-2-1-2.6c-0.6-0.6-1.4-0.8-2.4-0.8C126.5,92.4,125.2,93.6,124.8,95.9z"/>
	</g>
	<g>
		<path class="st1" d="M1.8,130.9c-1.2-1.3-1.8-3.1-1.8-5.4s0.6-4.1,1.8-5.4c1.2-1.3,2.8-2,5-2c0.8,0,1.4,0.1,2,0.2
			c0.5,0.1,1.1,0.3,1.8,0.5v2.3c-0.6-0.3-1.2-0.5-1.7-0.6s-1.1-0.2-1.8-0.2c-1.6,0-2.7,0.5-3.4,1.4c-0.7,0.9-1.1,2.2-1.1,3.7
			c0,1.6,0.4,2.9,1.1,3.8c0.7,0.9,1.8,1.4,3.4,1.4c1.2,0,2.5-0.4,3.9-1.1l0.8,2.1c-1.5,0.8-3.1,1.2-4.8,1.2
			C4.6,132.9,2.9,132.2,1.8,130.9z"/>
		<path class="st1" d="M16.9,131.9c-1-0.6-1.8-1.5-2.3-2.7c-0.5-1.1-0.8-2.4-0.8-3.8c0-1.4,0.3-2.7,0.8-3.8c0.5-1.1,1.3-2,2.3-2.7
			c1-0.6,2.3-1,3.8-1c1.5,0,2.7,0.3,3.8,1c1,0.6,1.8,1.5,2.3,2.7c0.5,1.1,0.8,2.4,0.8,3.8c0,1.4-0.3,2.7-0.8,3.8
			c-0.5,1.1-1.3,2-2.3,2.7c-1,0.6-2.3,1-3.8,1C19.2,132.9,17.9,132.6,16.9,131.9z M23.9,129.3c0.8-1,1.1-2.2,1.1-3.8
			c0-1.5-0.4-2.8-1.1-3.8c-0.8-1-1.8-1.5-3.2-1.5c-1.4,0-2.5,0.5-3.3,1.5c-0.8,1-1.2,2.2-1.2,3.8c0,1.5,0.4,2.8,1.2,3.8
			c0.8,1,1.9,1.5,3.3,1.5C22.1,130.7,23.2,130.2,23.9,129.3z"/>
		<path class="st1" d="M41.7,119.5c0.8,0.9,1.2,2.4,1.2,4.5v8.4h-2.4V124c0-1.3-0.2-2.2-0.7-2.8c-0.4-0.6-1.2-0.8-2.4-0.8
			c-1.3,0-2.6,0.6-3.9,1.7v10.3h-2.4v-14h2.4v1.5c1.4-1.2,2.8-1.8,4.3-1.8C39.6,118.2,40.9,118.6,41.7,119.5z"/>
		<path class="st1" d="M57.8,119.5c0.8,0.9,1.2,2.4,1.2,4.5v8.4h-2.4V124c0-1.3-0.2-2.2-0.7-2.8c-0.4-0.6-1.2-0.8-2.4-0.8
			c-1.3,0-2.6,0.6-3.9,1.7v10.3h-2.4v-21.4h2.4v8.9c1.4-1.2,2.8-1.8,4.3-1.8C55.7,118.2,57,118.6,57.8,119.5z"/>
		<path class="st1" d="M66.3,129.4c0.7,0.9,1.9,1.4,3.5,1.4c1.2,0,2.6-0.3,4-1l0.7,2c-1.5,0.8-3.2,1.2-5,1.2c-1.5,0-2.7-0.3-3.8-0.9
			c-1-0.6-1.8-1.5-2.4-2.6c-0.5-1.1-0.8-2.4-0.8-3.9c0-1.6,0.3-2.9,0.8-4c0.6-1.1,1.3-1.9,2.3-2.5c1-0.6,2-0.9,3.2-0.9
			c1.8,0,3.3,0.6,4.3,1.7c1,1.1,1.6,2.8,1.6,4.9v0.9h-9.8C65.1,127.2,65.5,128.4,66.3,129.4z M65.3,123.7h7.1c-0.1-1.2-0.4-2-1-2.6
			c-0.6-0.6-1.4-0.8-2.4-0.8C66.9,120.2,65.7,121.4,65.3,123.7z"/>
		<path class="st1" d="M79.2,130.9c-1.2-1.3-1.8-3.1-1.8-5.4s0.6-4.1,1.8-5.4c1.2-1.3,2.8-2,5-2c0.8,0,1.4,0.1,2,0.2
			c0.5,0.1,1.1,0.3,1.8,0.5v2.3c-0.6-0.3-1.2-0.5-1.7-0.6s-1.1-0.2-1.8-0.2c-1.6,0-2.7,0.5-3.4,1.4c-0.7,0.9-1.1,2.2-1.1,3.7
			c0,1.6,0.4,2.9,1.1,3.8c0.7,0.9,1.8,1.4,3.4,1.4c1.2,0,2.5-0.4,3.9-1.1l0.8,2.1c-1.5,0.8-3.1,1.2-4.8,1.2
			C82,132.9,80.3,132.2,79.2,130.9z"/>
		<path class="st1" d="M92.1,112h2.4v3.8h-2.4V112z M92.1,118.5h2.4v14h-2.4V118.5z"/>
		<path class="st1" d="M118.5,119.5c0.8,0.9,1.2,2.4,1.2,4.5v8.4h-2.4V124c0-1.3-0.2-2.3-0.6-2.8c-0.4-0.5-1.2-0.8-2.3-0.8
			c-1.3,0-2.6,0.6-3.9,1.9c0.1,0.5,0.1,1.1,0.1,1.7v8.4h-2.4V124c0-1.3-0.2-2.3-0.6-2.8c-0.4-0.5-1.2-0.8-2.3-0.8
			c-1.3,0-2.6,0.6-3.8,1.7v10.3H99v-14h2.4v1.5c1.4-1.2,2.8-1.8,4.2-1.8c1.1,0,2.1,0.2,2.8,0.6s1.3,1,1.6,1.8
			c1.5-1.6,3.1-2.4,4.7-2.4C116.4,118.2,117.6,118.6,118.5,119.5z"/>
		<path class="st1" d="M126.4,129.4c0.7,0.9,1.9,1.4,3.5,1.4c1.2,0,2.6-0.3,4-1l0.7,2c-1.5,0.8-3.2,1.2-5,1.2
			c-1.5,0-2.7-0.3-3.8-0.9c-1-0.6-1.8-1.5-2.4-2.6c-0.5-1.1-0.8-2.4-0.8-3.9c0-1.6,0.3-2.9,0.8-4c0.6-1.1,1.3-1.9,2.3-2.5
			c1-0.6,2-0.9,3.2-0.9c1.8,0,3.3,0.6,4.3,1.7c1,1.1,1.6,2.8,1.6,4.9v0.9h-9.8C125.3,127.2,125.7,128.4,126.4,129.4z M125.4,123.7
			h7.1c-0.1-1.2-0.4-2-1-2.6c-0.6-0.6-1.4-0.8-2.4-0.8C127.1,120.2,125.8,121.4,125.4,123.7z"/>
		<path class="st1" d="M148.9,119.5c0.8,0.9,1.2,2.4,1.2,4.5v8.4h-2.4V124c0-1.3-0.2-2.2-0.7-2.8c-0.4-0.6-1.2-0.8-2.4-0.8
			c-1.3,0-2.6,0.6-3.9,1.7v10.3h-2.4v-14h2.4v1.5c1.4-1.2,2.8-1.8,4.3-1.8C146.8,118.2,148.1,118.6,148.9,119.5z"/>
		<path class="st1" d="M157.4,120.9v8c0,0.7,0.1,1.1,0.3,1.4c0.2,0.2,0.6,0.4,1.2,0.4c0.5,0,1-0.1,1.6-0.2v2.1
			c-0.8,0.2-1.4,0.3-2,0.3c-1.3,0-2.2-0.3-2.7-0.8c-0.5-0.5-0.8-1.4-0.8-2.6v-8.5h-1.8v-2.2h1.8v-4.8h2.4v4.8h3.2v2.2H157.4z"/>
		<path class="st1" d="M166.2,131.9c-1-0.6-1.8-1.5-2.3-2.7c-0.5-1.1-0.8-2.4-0.8-3.8c0-1.4,0.3-2.7,0.8-3.8c0.5-1.1,1.3-2,2.3-2.7
			c1-0.6,2.3-1,3.8-1c1.5,0,2.7,0.3,3.8,1c1,0.6,1.8,1.5,2.3,2.7c0.5,1.1,0.8,2.4,0.8,3.8c0,1.4-0.3,2.7-0.8,3.8
			c-0.5,1.1-1.3,2-2.3,2.7c-1,0.6-2.3,1-3.8,1C168.5,132.9,167.3,132.6,166.2,131.9z M173.3,129.3c0.8-1,1.1-2.2,1.1-3.8
			c0-1.5-0.4-2.8-1.1-3.8c-0.8-1-1.8-1.5-3.2-1.5c-1.4,0-2.5,0.5-3.3,1.5c-0.8,1-1.2,2.2-1.2,3.8c0,1.5,0.4,2.8,1.2,3.8
			c0.8,1,1.9,1.5,3.3,1.5C171.4,130.7,172.5,130.2,173.3,129.3z"/>
	</g>
</g>
</svg>
