<svg xmlns="http://www.w3.org/2000/svg" viewBox="0 0 176.887 199.785"><defs><style>.a{fill:#6a4b9d;}.b{fill:#5fa0ff;}.c{fill:#5a5a5a;}.d{fill:#818181;}</style></defs><g transform="translate(48.871)"><g transform="translate(21.515 23.052)"><rect class="a" width="12.294" height="22.13"/></g><g transform="translate(45.49 23.052)"><rect class="a" width="12.294" height="22.13"/></g><g transform="translate(11.983)"><path class="b" d="M95.08,17.52H86.32c0-2-.461-8.76-5.84-8.76H54.2c-5.379,0-5.84,6.762-5.84,8.76H39.6C39.448,8.76,44.058,0,54.2,0H80.48C90.47,0,95.08,8.76,95.08,17.52Z" transform="translate(-39.598)"/></g><g transform="translate(0 23.052)"><path class="a" d="M99.881,15c0,4-.307,11.219-.768,16.444-.615,5.994-1.076,12.141-2.459,17.212-2.92,1.537-13.217,2.92-25.2,2.92h0c-11.987,0-22.284-1.383-25.2-2.92-1.383-5.071-1.844-11.219-2.459-17.212C43.326,26.219,43.019,19,43.019,15H31.8c0,4.149.307,10.758.768,16.136.615,6.916,1.383,15.214,3.227,21.515,1.69,5.994,9.528,7.838,16.9,8.913a157.612,157.612,0,0,0,18.9,1.229h0a157.612,157.612,0,0,0,18.9-1.229c7.377-1.076,15.061-2.92,16.9-8.913,1.844-6.3,2.613-14.6,3.227-21.515.461-5.533.768-11.987.768-16.136Z" transform="translate(-31.8 -15)"/></g></g><g transform="translate(0 92.977)"><path class="c" d="M35.654,91.082v21.054a1.377,1.377,0,0,1-1.383,1.383H26.894a1.377,1.377,0,0,1-1.383-1.383V91.082c0-4.3-1.537-6.608-6.455-6.608-3.074,0-5.84,1.229-8.606,3.535v24.128a1.377,1.377,0,0,1-1.383,1.383H1.383A1.377,1.377,0,0,1,0,112.137V61.883A1.377,1.377,0,0,1,1.383,60.5H8.76a1.377,1.377,0,0,1,1.383,1.383V79.249a16.154,16.154,0,0,1,10.758-4C30.582,75.253,35.654,79.71,35.654,91.082Z" transform="translate(0 -60.5)"/><g transform="translate(66.236 14.446)"><path class="c" d="M80.6,89.725c0,13.37-7.223,19.825-17.059,19.825a17.034,17.034,0,0,1-10.3-3.842v14.6a1.377,1.377,0,0,1-1.383,1.383H44.483a1.377,1.377,0,0,1-1.383-1.383V72.359a1.377,1.377,0,0,1,1.383-1.383H51.86a1.377,1.377,0,0,1,1.383,1.383v1.383A16.132,16.132,0,0,1,63.54,69.9C73.375,69.9,80.6,76.508,80.6,89.725Zm-10.6,0c0-6.916-2.92-10.6-8.452-10.6A13.729,13.729,0,0,0,53.4,82.194V97.563a13.729,13.729,0,0,0,8.145,3.074C67.074,100.482,69.994,96.794,69.994,89.725Z" transform="translate(-43.1 -69.9)"/></g><g transform="translate(110.804 14.292)"><path class="c" d="M93.462,101.151A20.536,20.536,0,0,0,102.529,99a1.525,1.525,0,0,1,2,.768l1.844,5.379a1.369,1.369,0,0,1-.768,1.69c-4.149,2.152-8.145,2.766-13.37,2.766-13.063,0-20.132-8.145-20.132-19.979C72.1,76.716,80.245,69.8,90.234,69.8c10.45,0,17.212,6.147,17.212,18.6v2.613a1.377,1.377,0,0,1-1.383,1.383H82.858C83.626,97.463,86.239,101.151,93.462,101.151Zm-10.3-16.29H97.457c-.461-4.61-2.613-6.608-6.916-6.608C86.7,78.252,84.087,79.943,83.165,84.861Z" transform="translate(-72.1 -69.8)"/></g><g transform="translate(154.757 14.753)"><path class="c" d="M122.83,71.483v6.3a1.377,1.377,0,0,1-1.383,1.383,25.131,25.131,0,0,0-3.381.307,18.659,18.659,0,0,0-7.223,3.535V106.83a1.377,1.377,0,0,1-1.383,1.383h-7.377a1.377,1.377,0,0,1-1.383-1.383V72.252a1.377,1.377,0,0,1,1.383-1.383h7.377a1.377,1.377,0,0,1,1.383,1.383V74.4c2.92-2.459,5.686-4,8.913-4.3h1.69A1.377,1.377,0,0,1,122.83,71.483Z" transform="translate(-100.7 -70.1)"/></g><g transform="translate(45.49 1.076)"><g transform="translate(0 14.446)"><path class="c" d="M30.983,70.6H38.36a1.377,1.377,0,0,1,1.383,1.383v34.732A1.377,1.377,0,0,1,38.36,108.1H30.983a1.377,1.377,0,0,1-1.383-1.383V72.137A1.419,1.419,0,0,1,30.983,70.6Z" transform="translate(-29.6 -70.6)"/></g><g transform="translate(0.154)"><path class="c" d="M39.536,62.737A7.384,7.384,0,0,0,34.771,61.2h0a8.776,8.776,0,0,0-4.764,1.537,1.174,1.174,0,0,0-.307.768V68.73a1.623,1.623,0,0,0,.307.768,7.384,7.384,0,0,0,4.764,1.537h0A8.776,8.776,0,0,0,39.536,69.5a1.174,1.174,0,0,0,.307-.768V63.505A1.174,1.174,0,0,0,39.536,62.737Z" transform="translate(-29.7 -61.2)"/></g></g></g><g transform="translate(39.957 176.272)"><path class="d" d="M44.442,123.967v11.987a16.373,16.373,0,0,1-7.684,2c-7.223,0-10.758-4.764-10.758-11.526,0-6.3,3.381-11.526,10.758-11.526a16.66,16.66,0,0,1,6.3,1.383V118.9a12.7,12.7,0,0,0-6.3-1.69c-5.071,0-7.991,3.842-7.838,9.067,0,5.379,2.766,9.067,7.838,9.067a12.033,12.033,0,0,0,4.764-1.076v-7.838h-8.3v-2.613H44.442Z" transform="translate(-26 -114.593)"/><path class="d" d="M49,133.4a10.351,10.351,0,0,0,4.61-1.229l.768,2.305a12.418,12.418,0,0,1-5.686,1.383c-5.225,0-7.991-3.535-7.991-8.606,0-5.533,3.227-8.452,7.377-8.452s6.762,2.613,6.762,7.684v1.076H43.62C43.62,130.787,45,133.4,49,133.4Zm-5.225-8.145h8.145c-.154-2.766-1.383-4-3.842-4C45.771,121.259,44.235,122.488,43.774,125.255Z" transform="translate(-18.109 -112.499)"/><path class="d" d="M51.7,134.683v-2.766a12.429,12.429,0,0,0,5.994,1.537c2.305,0,3.074-1.076,3.074-2.459,0-1.537-.922-2-2.459-2.459l-1.844-.461c-2.305-.615-4.3-1.69-4.3-4.764,0-2.92,1.844-4.61,5.686-4.61a12.371,12.371,0,0,1,5.071,1.076v2.613a10.654,10.654,0,0,0-5.071-1.229c-2.152,0-2.92,1.076-2.92,2.152,0,1.383,1.076,2,2.305,2.305l2,.461c2.613.615,4.457,1.537,4.457,4.918,0,3.227-2.459,4.918-5.84,4.918A13.345,13.345,0,0,1,51.7,134.683Z" transform="translate(-12.204 -112.553)"/><path class="d" d="M66.018,123.8v9.221c0,1.537.307,2,1.69,2a6.6,6.6,0,0,0,1.844-.307v2.459a10.456,10.456,0,0,1-2.305.307c-3.074,0-4-1.229-4-4v-9.836H61.1v-2.613h2.152V115.5h2.766v5.533h3.688v2.613H66.018Z" transform="translate(-7.158 -114.271)"/><path class="d" d="M80.956,128.224V137.6H78.189v-1.537a6.554,6.554,0,0,1-4.61,2,5.123,5.123,0,0,1-5.379-5.533c0-3.535,2.459-5.532,5.994-5.532a8.966,8.966,0,0,1,4,.922c0-2.613-.461-4-3.842-4H72.2v-2.459h2.613C80.187,121.462,80.956,124.382,80.956,128.224Zm-8.145-10.3H70.659c0-2.613,1.229-3.227,2.459-3.227a3.1,3.1,0,0,1,1.69.461l1.076.461a6.045,6.045,0,0,0,.922.307c.461,0,.768-.307.768-1.229h2.152c0,2.613-1.229,3.227-2.459,3.227a3.1,3.1,0,0,1-1.69-.461l-1.076-.461a6.045,6.045,0,0,0-.922-.307C73.118,116.7,72.81,117.005,72.81,117.927Zm5.379,15.829v-3.688a7.759,7.759,0,0,0-3.535-.768c-1.844,0-3.688.768-3.688,3.227a2.761,2.761,0,0,0,2.92,3.074A6.967,6.967,0,0,0,78.189,133.756Z" transform="translate(-3.347 -114.7)"/><path class="d" d="M78.8,127.406c0-4.764,2.613-8.606,7.991-8.606s7.991,3.842,7.991,8.606-2.613,8.606-7.991,8.606C81.413,135.859,78.8,132.17,78.8,127.406Zm13.063,0c0-3.535-1.69-5.994-5.071-5.994s-5.071,2.613-5.071,5.994c0,3.535,1.844,5.994,5.071,5.994S91.863,130.787,91.863,127.406Z" transform="translate(2.344 -112.499)"/></g></svg>