<svg xmlns="http://www.w3.org/2000/svg" viewBox="0 0 171.039 199.446"><defs><style>.a{fill:#6a4b9d;}.b{fill:#ffc200;}.c{fill:#5a5a5a;}.d{fill:#818181;}</style></defs><g transform="translate(47.147)"><g transform="translate(20.822 22.309)"><rect class="a" width="11.898" height="21.417"/></g><g transform="translate(43.875 22.309)"><rect class="a" width="11.898" height="21.417"/></g><g transform="translate(11.452)"><path class="b" d="M500.591,16.955h-8.478c0-1.933-.446-8.478-5.652-8.478H461.029c-5.206,0-5.652,6.544-5.652,8.478H446.9C446.9,8.478,451.213,0,461.029,0h25.433C496.278,0,500.591,8.478,500.591,16.955Z" transform="translate(-446.9)"/></g><g transform="translate(0 22.309)"><path class="a" d="M505.087,15c0,3.867-.3,10.857-.744,15.914-.595,5.8-1.041,11.75-2.38,16.658-2.826,1.487-12.791,2.826-24.392,2.826h0c-11.6,0-21.566-1.339-24.392-2.826-1.339-4.908-1.785-10.857-2.38-16.658-.446-5.057-.744-12.047-.744-15.914H439.2c0,4.016.3,10.411.744,15.617.595,6.693,1.339,14.724,3.123,20.822,1.636,5.8,9.221,7.585,16.36,8.626a152.534,152.534,0,0,0,18.294,1.19h0a152.532,152.532,0,0,0,18.294-1.19c7.139-1.041,14.576-2.826,16.36-8.626,1.785-6.1,2.528-14.129,3.123-20.822.446-5.354.744-11.6.744-15.617Z" transform="translate(-439.2 -15)"/></g></g><g transform="translate(0 89.981)"><path class="c" d="M441.708,90.1v20.376a1.333,1.333,0,0,1-1.339,1.339H433.23a1.333,1.333,0,0,1-1.339-1.339V90.1c0-4.164-1.487-6.4-6.247-6.4a12.8,12.8,0,0,0-8.329,3.421v23.351a1.333,1.333,0,0,1-1.339,1.339h-7.139a1.333,1.333,0,0,1-1.339-1.339V61.839a1.333,1.333,0,0,1,1.339-1.339h7.139a1.333,1.333,0,0,1,1.339,1.339V78.645a15.634,15.634,0,0,1,10.411-3.867C436.8,74.778,441.708,79.091,441.708,90.1Z" transform="translate(-407.5 -60.5)"/><g transform="translate(63.954 13.981)"><path class="c" d="M486.79,89.086c0,12.939-6.99,19.186-16.509,19.186a16.485,16.485,0,0,1-9.965-3.718v14.129a1.333,1.333,0,0,1-1.339,1.339h-7.139a1.333,1.333,0,0,1-1.339-1.339V72.28a1.333,1.333,0,0,1,1.339-1.339h7.139a1.333,1.333,0,0,1,1.339,1.339v1.339a15.612,15.612,0,0,1,9.965-3.718C479.8,69.9,486.79,76.3,486.79,89.086Zm-10.411,0c0-6.693-2.826-10.262-8.18-10.262a13.287,13.287,0,0,0-7.883,2.975V96.671a13.287,13.287,0,0,0,7.883,2.975C473.553,99.5,476.379,95.928,476.379,89.086Z" transform="translate(-450.5 -69.9)"/></g><g transform="translate(106.936 13.832)"><path class="c" d="M500.073,100.141a19.874,19.874,0,0,0,8.775-2.082,1.476,1.476,0,0,1,1.933.744l1.785,5.206a1.325,1.325,0,0,1-.744,1.636c-4.016,2.082-7.883,2.677-12.94,2.677-12.642,0-19.484-7.883-19.484-19.335,0-12.493,7.883-19.186,17.55-19.186,10.114,0,16.658,5.949,16.658,18v2.528a1.333,1.333,0,0,1-1.339,1.339H490.109C490.555,96.571,493.232,100.141,500.073,100.141Zm-9.965-15.765H503.94c-.446-4.462-2.528-6.4-6.693-6.4C493.678,77.98,491,79.616,490.109,84.375Z" transform="translate(-479.4 -69.8)"/></g><g transform="translate(149.622 14.278)"><path class="c" d="M529.517,71.439v6.1a1.333,1.333,0,0,1-1.339,1.339,24.322,24.322,0,0,0-3.272.3,18.058,18.058,0,0,0-6.99,3.421v23.053a1.333,1.333,0,0,1-1.339,1.339h-7.139a1.333,1.333,0,0,1-1.339-1.339V72.182a1.333,1.333,0,0,1,1.339-1.339h7.139a1.333,1.333,0,0,1,1.339,1.339v2.082c2.826-2.38,5.5-3.867,8.626-4.164h1.636A1.333,1.333,0,0,1,529.517,71.439Z" transform="translate(-508.1 -70.1)"/></g><g transform="translate(43.875 1.041)"><g transform="translate(0 13.981)"><path class="c" d="M438.339,70.6h7.139a1.333,1.333,0,0,1,1.339,1.339v33.613a1.333,1.333,0,0,1-1.339,1.339h-7.139A1.333,1.333,0,0,1,437,105.551V72.087A1.373,1.373,0,0,1,438.339,70.6Z" transform="translate(-437 -70.6)"/></g><path class="c" d="M446.519,62.687a7.146,7.146,0,0,0-4.611-1.487h0a8.494,8.494,0,0,0-4.611,1.487,1.136,1.136,0,0,0-.3.744v5.057a1.57,1.57,0,0,0,.3.744,7.146,7.146,0,0,0,4.611,1.487h0a8.494,8.494,0,0,0,4.611-1.487,1.136,1.136,0,0,0,.3-.744V63.431A1.136,1.136,0,0,0,446.519,62.687Z" transform="translate(-437 -61.2)"/></g></g><g transform="translate(17.55 168.808)"><path class="d" d="M435.512,115.2v21.417h-2.677V127.1H421.977v9.519H419.3V115.2h2.677v9.37h10.857V115.2Z" transform="translate(-419.3 -112.672)"/><path class="d" d="M434,114.3h2.677v4.313H434Zm0,7.139h2.677v15.617H434Z" transform="translate(-412.137 -113.11)"/><path class="d" d="M453.329,127.082c0,5.5-2.826,8.329-6.99,8.329a6.735,6.735,0,0,1-4.462-1.934v8.031H439.2V119.348h2.677v1.487a6.735,6.735,0,0,1,4.462-1.933C450.355,118.753,453.329,121.43,453.329,127.082Zm-2.826,0c0-3.718-1.487-5.8-4.611-5.8a6.569,6.569,0,0,0-4.164,1.785V131.1a6.569,6.569,0,0,0,4.164,1.785C449.016,132.883,450.5,130.8,450.5,127.082Z" transform="translate(-409.603 -110.871)"/><path class="d" d="M458.831,132.929a10.017,10.017,0,0,0,4.462-1.19l.744,2.231a12.018,12.018,0,0,1-5.5,1.339c-5.057,0-7.734-3.421-7.734-8.329,0-5.354,3.123-8.18,7.139-8.18s6.544,2.528,6.544,7.436v1.041H453.626C453.626,130.4,454.964,132.929,458.831,132.929Zm-5.057-7.883h8.031c-.149-2.677-1.339-3.867-3.718-3.867S454.221,122.37,453.775,125.047Z" transform="translate(-403.95 -110.917)"/><path class="d" d="M470.531,118.9v2.528h-.595a7.163,7.163,0,0,0-4.759,1.933v11.452H462.5V119.2h2.677v1.785a6.663,6.663,0,0,1,4.759-2.082Z" transform="translate(-398.249 -110.869)"/><path class="d" d="M481.445,125.644v9.073h-2.677v-1.487a6.343,6.343,0,0,1-4.462,1.934,4.958,4.958,0,0,1-5.206-5.354c0-3.421,2.38-5.354,5.8-5.354a8.678,8.678,0,0,1,3.867.892c0-2.528-.446-3.867-3.718-3.867h-2.082V119.1H475.5C480.85,119.1,481.445,121.926,481.445,125.644ZM478.916,131v-3.57a7.509,7.509,0,0,0-3.421-.744c-1.785,0-3.569.744-3.569,3.123a2.672,2.672,0,0,0,2.826,2.975A7.09,7.09,0,0,0,478.916,131Z" transform="translate(-395.033 -110.771)"/><path class="d" d="M493.829,113.5v23.945h-2.677v-1.339a6.735,6.735,0,0,1-4.462,1.933c-4.016,0-6.99-2.677-6.99-8.329,0-5.5,2.826-8.329,6.99-8.329a6.735,6.735,0,0,1,4.462,1.933v-9.667h2.677Zm-2.677,20.227V125.7a6.569,6.569,0,0,0-4.164-1.785q-4.462,0-4.462,5.8c0,3.718,1.487,5.8,4.462,5.8A6.253,6.253,0,0,0,491.152,133.727Z" transform="translate(-389.867 -113.5)"/><path class="d" d="M492,127.129c0-4.611,2.528-8.329,7.734-8.329s7.734,3.718,7.734,8.329-2.528,8.329-7.734,8.329C494.528,135.309,492,131.739,492,127.129Zm12.642,0c0-3.421-1.636-5.8-4.908-5.8s-4.908,2.528-4.908,5.8c0,3.421,1.785,5.8,4.908,5.8S504.642,130.4,504.642,127.129Z" transform="translate(-383.874 -110.917)"/><path class="d" d="M513.131,118.9v2.528h-.595a7.163,7.163,0,0,0-4.759,1.933v11.452H505.1V119.2h2.677v1.785a6.663,6.663,0,0,1,4.759-2.082Z" transform="translate(-377.49 -110.869)"/></g></svg>