<svg xmlns="http://www.w3.org/2000/svg" viewBox="0 0 171.188 193.349"><defs><style>.a{fill:#6a4b9d;}.b{fill:#a0d848;}.c{fill:#5a5a5a;}.d{fill:#818181;}</style></defs><g transform="translate(47.296)"><g transform="translate(20.822 22.309)"><rect class="a" width="11.898" height="21.417"/></g><g transform="translate(44.024 22.309)"><rect class="a" width="11.898" height="21.417"/></g><g transform="translate(11.597)"><path class="b" d="M93.293,16.955H84.815c0-1.933-.446-8.478-5.652-8.478H53.73c-5.206,0-5.652,6.544-5.652,8.478H39.6C39.452,8.478,43.914,0,53.73,0H79.163C88.831,0,93.293,8.478,93.293,16.955Z" transform="translate(-39.598)"/></g><g transform="translate(0 22.309)"><path class="a" d="M97.687,15c0,3.867-.3,10.857-.744,15.914-.595,5.8-1.041,11.75-2.38,16.658C91.738,49.059,81.773,50.4,70.172,50.4h0c-11.6,0-21.566-1.339-24.392-2.826C44.442,42.664,44,36.715,43.4,30.914c-.446-5.057-.744-12.047-.744-15.914H31.8c0,4.016.3,10.411.744,15.617.595,6.693,1.339,14.724,3.123,20.822,1.636,5.8,9.221,7.585,16.36,8.626a152.533,152.533,0,0,0,18.294,1.19h0a152.533,152.533,0,0,0,18.294-1.19c7.139-1.041,14.576-2.826,16.36-8.626,1.785-6.1,2.528-14.129,3.123-20.822.446-5.354.744-11.6.744-15.617Z" transform="translate(-31.8 -15)"/></g></g><g transform="translate(0 89.981)"><path class="c" d="M34.505,90.1v20.376a1.333,1.333,0,0,1-1.339,1.339H26.028a1.333,1.333,0,0,1-1.339-1.339V90.1c0-4.164-1.487-6.4-6.247-6.4a12.8,12.8,0,0,0-8.329,3.421v23.351a1.333,1.333,0,0,1-1.339,1.339H1.339A1.333,1.333,0,0,1,0,110.473V61.839A1.333,1.333,0,0,1,1.339,60.5H8.478a1.333,1.333,0,0,1,1.339,1.339V78.645a15.634,15.634,0,0,1,10.411-3.867C29.6,74.778,34.505,79.091,34.505,90.1Z" transform="translate(0 -60.5)"/><g transform="translate(64.102 13.981)"><path class="c" d="M79.39,89.086c0,12.939-6.99,19.186-16.509,19.186a16.485,16.485,0,0,1-9.965-3.718v14.129a1.333,1.333,0,0,1-1.339,1.339H44.439a1.333,1.333,0,0,1-1.339-1.339V72.28a1.333,1.333,0,0,1,1.339-1.339h7.139a1.333,1.333,0,0,1,1.339,1.339v1.339A15.612,15.612,0,0,1,62.881,69.9C72.4,69.9,79.39,76.3,79.39,89.086Zm-10.262,0c0-6.693-2.826-10.262-8.18-10.262A13.287,13.287,0,0,0,53.065,81.8V96.671a13.287,13.287,0,0,0,7.883,2.975C66.3,99.5,69.128,95.928,69.128,89.086Z" transform="translate(-43.1 -69.9)"/></g><g transform="translate(107.234 13.832)"><path class="c" d="M92.773,100.141a19.874,19.874,0,0,0,8.775-2.082,1.476,1.476,0,0,1,1.933.744l1.785,5.206a1.325,1.325,0,0,1-.744,1.636c-4.016,2.082-7.883,2.677-12.939,2.677-12.642,0-19.484-7.883-19.484-19.335C72.1,76.493,79.983,69.8,89.65,69.8c10.114,0,16.658,5.949,16.658,18v2.528a1.333,1.333,0,0,1-1.339,1.339H82.511C83.255,96.571,85.783,100.141,92.773,100.141ZM82.809,84.375H96.64c-.446-4.462-2.528-6.4-6.693-6.4C86.229,77.98,83.7,79.616,82.809,84.375Z" transform="translate(-72.1 -69.8)"/></g><g transform="translate(149.771 14.278)"><path class="c" d="M122.117,71.439v6.1a1.333,1.333,0,0,1-1.339,1.339,24.321,24.321,0,0,0-3.272.3,18.058,18.058,0,0,0-6.99,3.421v23.053a1.333,1.333,0,0,1-1.339,1.339h-7.139a1.333,1.333,0,0,1-1.339-1.339V72.182a1.333,1.333,0,0,1,1.339-1.339h7.139a1.333,1.333,0,0,1,1.339,1.339v2.082c2.826-2.38,5.5-3.867,8.626-4.164h1.636A1.333,1.333,0,0,1,122.117,71.439Z" transform="translate(-100.7 -70.1)"/></g><g transform="translate(44.024 1.041)"><g transform="translate(0 13.981)"><path class="c" d="M30.939,70.6h7.139a1.333,1.333,0,0,1,1.339,1.339v33.613a1.333,1.333,0,0,1-1.339,1.339H30.939a1.333,1.333,0,0,1-1.339-1.339V72.087A1.373,1.373,0,0,1,30.939,70.6Z" transform="translate(-29.6 -70.6)"/></g><g transform="translate(0.149)"><path class="c" d="M39.219,62.687A7.146,7.146,0,0,0,34.608,61.2h0A8.494,8.494,0,0,0,30,62.687a1.136,1.136,0,0,0-.3.744v5.057a1.57,1.57,0,0,0,.3.744,7.146,7.146,0,0,0,4.611,1.487h0a8.494,8.494,0,0,0,4.611-1.487,1.136,1.136,0,0,0,.3-.744V63.431A1.136,1.136,0,0,0,39.219,62.687Z" transform="translate(-29.7 -61.2)"/></g></g></g><g transform="translate(50.122 169.998)"><path class="d" d="M33.7,126.055c0-6.1,3.272-11.155,10.411-11.155a12.071,12.071,0,0,1,5.206,1.041v2.528a10.693,10.693,0,0,0-5.206-1.19c-4.908,0-7.734,3.718-7.734,8.775,0,5.206,2.677,8.775,7.585,8.775a14.269,14.269,0,0,0,5.949-1.636l.892,2.38a15.139,15.139,0,0,1-6.842,1.785C37.121,137.209,33.7,132.748,33.7,126.055Z" transform="translate(-33.7 -114.008)"/><path class="d" d="M59.045,125.644v9.073H56.367v-1.487a6.343,6.343,0,0,1-4.462,1.934,4.958,4.958,0,0,1-5.206-5.354c0-3.421,2.38-5.354,5.8-5.354a8.678,8.678,0,0,1,3.867.892c0-2.528-.446-3.867-3.718-3.867H50.567V119.1H53.1C58.3,119.1,59.045,121.926,59.045,125.644ZM56.367,131v-3.57a7.509,7.509,0,0,0-3.421-.744c-1.785,0-3.57.744-3.57,3.123a2.672,2.672,0,0,0,2.826,2.975A6.426,6.426,0,0,0,56.367,131Z" transform="translate(-27.365 -111.961)"/><path class="d" d="M57.9,114.3h2.677v4.313H57.9Zm0,7.139h2.677v15.617H57.9Z" transform="translate(-21.907 -114.3)"/><path class="d" d="M73.4,134.717l-4.164-6.1-4.016,6.1H62.1l5.5-8.18L62.4,119.1h3.123l3.718,5.652,3.867-5.652h3.123l-5.354,7.734,5.652,7.883Z" transform="translate(-19.861 -111.961)"/><path class="d" d="M85.445,125.644v9.073H82.767v-1.487a6.343,6.343,0,0,1-4.462,1.934,4.958,4.958,0,0,1-5.206-5.354c0-3.421,2.38-5.354,5.8-5.354a8.678,8.678,0,0,1,3.867.892c0-2.528-.446-3.867-3.718-3.867H76.967V119.1H79.5C84.7,119.1,85.445,121.926,85.445,125.644ZM82.767,131v-3.57a7.509,7.509,0,0,0-3.421-.744c-1.785,0-3.57.744-3.57,3.123a2.672,2.672,0,0,0,2.826,2.975A6.426,6.426,0,0,0,82.767,131Z" transform="translate(-14.501 -111.961)"/></g></svg>