<svg xmlns="http://www.w3.org/2000/svg" viewBox="0 0 170.891 199.893"><defs><style>.a{fill:#6a4b9d;}.b{fill:#ff7f00;}.c{fill:#5a5a5a;}.d{fill:#818181;}</style></defs><g transform="translate(46.85)"><g transform="translate(21.12 22.309)"><rect class="a" width="11.898" height="21.417"/></g><g transform="translate(44.173 22.309)"><rect class="a" width="11.898" height="21.417"/></g><g transform="translate(11.75)"><path class="b" d="M296.591,16.955h-8.478c0-1.933-.446-8.478-5.652-8.478H257.029c-5.206,0-5.652,6.544-5.652,8.478H242.9C242.9,8.478,247.213,0,257.029,0h25.433C292.129,0,296.591,8.478,296.591,16.955Z" transform="translate(-242.9)"/></g><g transform="translate(0 22.309)"><path class="a" d="M301.036,15c0,3.867-.3,10.857-.744,15.914-.595,5.8-1.041,11.75-2.38,16.658-2.826,1.487-12.791,2.826-24.392,2.826h0c-11.6,0-21.566-1.339-24.392-2.826-1.339-4.908-1.785-10.857-2.38-16.658-.446-5.057-.744-12.047-.744-15.914H235c0,4.016.3,10.411.744,15.617.595,6.693,1.339,14.724,3.123,20.822,1.636,5.8,9.221,7.585,16.36,8.626a152.533,152.533,0,0,0,18.294,1.19h0a152.531,152.531,0,0,0,18.294-1.19c7.139-1.041,14.576-2.826,16.36-8.626,1.785-6.1,2.528-14.129,3.123-20.822.446-5.354.744-11.6.744-15.617Z" transform="translate(-235 -15)"/></g></g><g transform="translate(0 89.981)"><path class="c" d="M237.708,90.1v20.376a1.333,1.333,0,0,1-1.339,1.339H229.23a1.333,1.333,0,0,1-1.339-1.339V90.1c0-4.164-1.487-6.4-6.247-6.4a12.8,12.8,0,0,0-8.329,3.421v23.351a1.333,1.333,0,0,1-1.339,1.339h-7.139a1.333,1.333,0,0,1-1.339-1.339V61.839a1.333,1.333,0,0,1,1.339-1.339h7.139a1.333,1.333,0,0,1,1.339,1.339V78.645a15.634,15.634,0,0,1,10.411-3.867C232.8,74.778,237.708,79.091,237.708,90.1Z" transform="translate(-203.5 -60.5)"/><g transform="translate(63.805 13.981)"><path class="c" d="M282.69,89.086c0,12.939-6.99,19.186-16.509,19.186a16.485,16.485,0,0,1-9.965-3.718v14.129a1.333,1.333,0,0,1-1.339,1.339h-7.139a1.333,1.333,0,0,1-1.339-1.339V72.28a1.333,1.333,0,0,1,1.339-1.339h7.139a1.333,1.333,0,0,1,1.339,1.339v1.339a15.612,15.612,0,0,1,9.965-3.718C275.7,69.9,282.69,76.3,282.69,89.086Zm-10.262,0c0-6.693-2.826-10.262-8.18-10.262a13.287,13.287,0,0,0-7.883,2.975V96.671a13.287,13.287,0,0,0,7.883,2.975C269.6,99.5,272.428,95.928,272.428,89.086Z" transform="translate(-246.4 -69.9)"/></g><g transform="translate(106.937 13.832)"><path class="c" d="M296.073,100.141a19.874,19.874,0,0,0,8.775-2.082,1.476,1.476,0,0,1,1.933.744l1.785,5.206a1.325,1.325,0,0,1-.744,1.636c-4.016,2.082-7.883,2.677-12.94,2.677-12.642,0-19.484-7.883-19.484-19.335,0-12.493,7.883-19.186,17.55-19.186,10.114,0,16.658,5.949,16.658,18v2.528a1.333,1.333,0,0,1-1.339,1.339H286.109C286.555,96.571,289.083,100.141,296.073,100.141Zm-9.965-15.765H299.94c-.446-4.462-2.528-6.4-6.693-6.4C289.529,77.98,287,79.616,286.109,84.375Z" transform="translate(-275.4 -69.8)"/></g><g transform="translate(149.473 14.278)"><path class="c" d="M325.417,71.439v6.1a1.333,1.333,0,0,1-1.339,1.339,24.322,24.322,0,0,0-3.272.3,18.058,18.058,0,0,0-6.99,3.421v23.053a1.333,1.333,0,0,1-1.339,1.339h-7.139A1.333,1.333,0,0,1,304,105.646V72.182a1.333,1.333,0,0,1,1.339-1.339h7.139a1.333,1.333,0,0,1,1.339,1.339v2.082c2.826-2.38,5.5-3.867,8.626-4.164h1.636A1.333,1.333,0,0,1,325.417,71.439Z" transform="translate(-304 -70.1)"/></g><g transform="translate(43.852 1.041)"><g transform="translate(0 13.981)"><path class="c" d="M234.346,70.6h7.139a1.333,1.333,0,0,1,1.339,1.339v33.613a1.333,1.333,0,0,1-1.339,1.339h-7.139a1.333,1.333,0,0,1-1.339-1.339V72.087A1.23,1.23,0,0,1,234.346,70.6Z" transform="translate(-232.985 -70.6)"/></g><g transform="translate(0.023)"><path class="c" d="M242.519,62.687a7.146,7.146,0,0,0-4.611-1.487h0a8.494,8.494,0,0,0-4.611,1.487,1.136,1.136,0,0,0-.3.744v5.057a1.571,1.571,0,0,0,.3.744,7.146,7.146,0,0,0,4.611,1.487h0a8.494,8.494,0,0,0,4.611-1.487,1.136,1.136,0,0,0,.3-.744V63.431A1.136,1.136,0,0,0,242.519,62.687Z" transform="translate(-233 -61.2)"/></g></g></g><g transform="translate(59.046 169.998)"><path class="d" d="M254.95,134.089v2.528H243.2V115.2h2.677v18.889Z" transform="translate(-243.2 -113.861)"/><path class="d" d="M253,127.129c0-4.611,2.528-8.329,7.734-8.329s7.734,3.718,7.734,8.329-2.528,8.329-7.734,8.329S253,131.739,253,127.129Zm12.493,0c0-3.421-1.636-5.8-4.908-5.8s-4.908,2.528-4.908,5.8c0,3.421,1.785,5.8,4.908,5.8C263.857,132.929,265.493,130.4,265.493,127.129Z" transform="translate(-238.425 -112.107)"/><path class="d" d="M264,143.9v-2.38a4.118,4.118,0,0,0,1.339.149c1.339,0,1.636-.446,1.636-2.677v-17.55h2.677v18.294c0,3.272-1.041,4.462-4.016,4.462A7.674,7.674,0,0,1,264,143.9Zm3.123-29.6H269.8v4.313h-2.677Z" transform="translate(-233.064 -114.3)"/><path class="d" d="M282.545,125.644v9.073h-2.677v-1.487a6.343,6.343,0,0,1-4.462,1.934,4.958,4.958,0,0,1-5.206-5.354c0-3.421,2.38-5.354,5.8-5.354a8.678,8.678,0,0,1,3.867.892c0-2.528-.446-3.867-3.718-3.867h-2.082V119.1H276.6C281.8,119.1,282.545,121.926,282.545,125.644ZM279.867,131v-3.57a7.509,7.509,0,0,0-3.421-.744c-1.785,0-3.569.744-3.569,3.123a2.672,2.672,0,0,0,2.826,2.975A6.426,6.426,0,0,0,279.867,131Z" transform="translate(-230.043 -111.961)"/></g></svg>