<svg xmlns="http://www.w3.org/2000/svg" viewBox="0 0 90.02 68.09"><defs><style>.cls-1{fill:#5a5a5a;}.cls-2{fill:#828282;}</style></defs><title>Ativo 31</title><g id="Camada_2" data-name="Camada 2"><g id="Camada_1-2" data-name="Camada 1"><path class="cls-1" d="M18.11,15.55V26.28a.73.73,0,0,1-.73.73H13.61a.73.73,0,0,1-.73-.73V15.55c0-2.17-.81-3.36-3.32-3.36A6.67,6.67,0,0,0,5.22,14V26.28a.73.73,0,0,1-.73.73H.73A.73.73,0,0,1,0,26.28V.72A.73.73,0,0,1,.73,0H4.49a.72.72,0,0,1,.73.72V9.58a8.28,8.28,0,0,1,5.46-2.07C15.56,7.51,18.11,9.82,18.11,15.55Z"/><path class="cls-1" d="M52.79,17.48c0,6.78-3.67,10.1-8.69,10.1a8.46,8.46,0,0,1-5.22-1.93v7.41a.73.73,0,0,1-.72.73H34.39a.73.73,0,0,1-.73-.73V8.64a.73.73,0,0,1,.73-.72h3.77a.72.72,0,0,1,.72.72v.7a8.32,8.32,0,0,1,5.22-2C49.12,7.38,52.79,10.73,52.79,17.48Zm-5.43,0c0-3.53-1.46-5.43-4.34-5.43a7.06,7.06,0,0,0-4.14,1.53v7.8A7.17,7.17,0,0,0,43,22.94C45.9,22.94,47.36,21,47.36,17.48Z"/><path class="cls-1" d="M67.22,23.21a10.79,10.79,0,0,0,4.6-1.09.72.72,0,0,1,1,.43l.93,2.71a.73.73,0,0,1-.37.89,14.24,14.24,0,0,1-6.82,1.43c-6.68,0-10.24-4.13-10.24-10.13,0-6.58,4.14-10.07,9.22-10.07,5.33,0,8.75,3.15,8.75,9.46v1.34a.72.72,0,0,1-.73.72H61.86C62.2,21.34,63.59,23.21,67.22,23.21ZM62,14.94h7.26c-.25-2.34-1.37-3.38-3.49-3.38C63.83,11.56,62.47,12.46,62,14.94Z"/><path class="cls-1" d="M90,8.25v3.22a.74.74,0,0,1-.71.73,8.93,8.93,0,0,0-1.7.18,9.94,9.94,0,0,0-3.69,1.78V26.28a.73.73,0,0,1-.73.73H79.42a.73.73,0,0,1-.72-.73V8.64a.72.72,0,0,1,.72-.72h3.77a.73.73,0,0,1,.73.72V9.75a8.4,8.4,0,0,1,4.53-2.2l.83,0A.72.72,0,0,1,90,8.25Z"/><path class="cls-1" d="M23.88,7.95h3.77a.72.72,0,0,1,.72.72V26.31a.72.72,0,0,1-.72.72H23.88a.73.73,0,0,1-.73-.73V8.68A.73.73,0,0,1,23.88,7.95Z"/><path class="cls-1" d="M28.19,1.37a3.84,3.84,0,0,0-2.4-.81h-.05a3.81,3.81,0,0,0-2.39.81.5.5,0,0,0-.18.36v2.7a.5.5,0,0,0,.18.36,3.81,3.81,0,0,0,2.39.81h.05a3.84,3.84,0,0,0,2.4-.81.53.53,0,0,0,.17-.36V1.73A.53.53,0,0,0,28.19,1.37Z"/><path class="cls-2" d="M24.6,49.21c0-2.57,1.4-4.67,4.39-4.67a5.15,5.15,0,0,1,2.18.44V46A4.9,4.9,0,0,0,29,45.55c-2,0-3.25,1.55-3.24,3.66s1.15,3.67,3.21,3.67a5.63,5.63,0,0,0,2.52-.69l.37,1a6.49,6.49,0,0,1-2.89.72C26,53.88,24.6,52,24.6,49.21Z"/><path class="cls-2" d="M36.32,52.89a4.32,4.32,0,0,0,1.89-.49l.35.93a4.92,4.92,0,0,1-2.34.55c-2.13,0-3.26-1.42-3.26-3.48,0-2.26,1.33-3.45,3-3.45S38.7,48,38.7,50.06v.44H34.12C34.15,51.81,34.7,52.89,36.32,52.89Zm-2.13-3.33h3.34c-.09-1.11-.6-1.62-1.59-1.62A1.69,1.69,0,0,0,34.19,49.56Z"/><path class="cls-2" d="M45.78,49.74v3.94H44.66V49.74c0-1.22-.35-1.71-1.42-1.71a2.8,2.8,0,0,0-1.84.81v4.84H40.28V47.13H41.4v.7a3.06,3.06,0,0,1,2-.84C45,47,45.78,47.74,45.78,49.74Z"/><path class="cls-2" d="M49.18,48.25V52c0,.63.16.82.7.82a2.91,2.91,0,0,0,.76-.1v1a4.12,4.12,0,0,1-1,.12c-1.22,0-1.62-.48-1.62-1.6v-4h-.85v-1h.85V45h1.11v2.25H50.7v1Z"/><path class="cls-2" d="M55.62,47v1h-.27a3.13,3.13,0,0,0-2,.82v4.83H52.26V47.13h1.11v.74a3.05,3.05,0,0,1,2-.88Z"/><path class="cls-2" d="M61.54,49.89v3.79H60.43V53a2.57,2.57,0,0,1-1.87.81,2.1,2.1,0,0,1-2.19-2.23,2.17,2.17,0,0,1,2.45-2.24,3.44,3.44,0,0,1,1.6.39c0-1-.19-1.63-1.54-1.63H58v-1h1.06C61.25,47.13,61.54,48.33,61.54,49.89Zm-1.11,2.23V50.63A3.15,3.15,0,0,0,59,50.3c-.73,0-1.49.28-1.49,1.31a1.15,1.15,0,0,0,1.21,1.27A2.69,2.69,0,0,0,60.43,52.12Z"/><path class="cls-2" d="M63.38,52.29V43.67h1.11V52c0,.63.15.82.71.82a2.73,2.73,0,0,0,.59-.07v1a4.13,4.13,0,0,1-.74.09C63.87,53.84,63.38,53.41,63.38,52.29Z"/><path class="cls-2" d="M16.36,57.87v10H15.25v-.6a3,3,0,0,1-1.9.8c-1.7,0-2.91-1.14-2.91-3.47s1.21-3.47,2.91-3.47a3,3,0,0,1,1.9.8V57.87Zm-1.11,8.45V62.93a2.72,2.72,0,0,0-1.75-.74c-1.25,0-1.9.84-1.9,2.43s.65,2.44,1.9,2.44A2.78,2.78,0,0,0,15.25,66.32Z"/><path class="cls-2" d="M21.45,67.09a4.38,4.38,0,0,0,1.9-.48l.34.92a4.89,4.89,0,0,1-2.33.56c-2.13,0-3.27-1.42-3.27-3.48,0-2.26,1.34-3.46,3-3.46s2.76,1.06,2.76,3.11v.44H19.25C19.28,66,19.83,67.09,21.45,67.09Zm-2.13-3.32h3.34c-.08-1.12-.59-1.63-1.59-1.63A1.69,1.69,0,0,0,19.32,63.77Z"/><path class="cls-2" d="M31.38,61.2v1h-.27a3.07,3.07,0,0,0-2,.82v4.83H28V61.34h1.11v.73a3,3,0,0,1,2-.87Z"/><path class="cls-2" d="M35.76,67.09a4.38,4.38,0,0,0,1.9-.48l.34.92a4.89,4.89,0,0,1-2.33.56c-2.13,0-3.27-1.42-3.27-3.48,0-2.26,1.34-3.46,3-3.46s2.76,1.06,2.76,3.11v.44H33.56C33.59,66,34.14,67.09,35.76,67.09Zm-2.13-3.32H37c-.08-1.12-.59-1.63-1.59-1.63A1.69,1.69,0,0,0,33.63,63.77Z"/><path class="cls-2" d="M39.73,66.49V57.87h1.11v8.32c0,.63.15.82.71.82a2.22,2.22,0,0,0,.59-.07v1a5.2,5.2,0,0,1-.74.08C40.22,68,39.73,67.61,39.73,66.49Z"/><path class="cls-2" d="M48,64.1v3.79H46.89v-.65A2.57,2.57,0,0,1,45,68a2.1,2.1,0,0,1-2.19-2.23,2.17,2.17,0,0,1,2.45-2.23,3.44,3.44,0,0,1,1.6.39c0-1-.19-1.64-1.54-1.64h-.88v-1h1C47.71,61.34,48,62.54,48,64.1Zm-1.11,2.22V64.83a3.19,3.19,0,0,0-1.45-.33c-.72,0-1.48.28-1.48,1.31a1.15,1.15,0,0,0,1.21,1.27A2.69,2.69,0,0,0,46.89,66.32Z"/><path class="cls-2" d="M51.17,62.45v3.74c0,.63.16.82.7.82a3.44,3.44,0,0,0,.76-.09v1a4.12,4.12,0,0,1-1,.12c-1.22,0-1.62-.47-1.62-1.6v-4h-.85v-1h.85V59.17h1.11v2.25h1.52v1Z"/><path class="cls-2" d="M53.85,64.62c0-1.92,1.07-3.47,3.23-3.47s3.22,1.55,3.22,3.47-1.07,3.47-3.22,3.47S53.85,66.55,53.85,64.62Zm5.29,0c0-1.41-.71-2.45-2.06-2.45S55,63.21,55,64.62s.72,2.46,2.07,2.46S59.14,66,59.14,64.62Zm-1.43-6.31H59l-1.43,1.81H56.46Z"/><path class="cls-2" d="M65.39,61.2v1h-.27a3.05,3.05,0,0,0-2,.82v4.83H62V61.34h1.11v.73a3,3,0,0,1,2-.87Z"/><path class="cls-2" d="M66.81,58.32h1.11v1.79H66.81Zm0,3h1.11v6.55H66.81Z"/><path class="cls-2" d="M69.65,64.62c0-1.92,1.08-3.47,3.23-3.47s3.22,1.55,3.22,3.47S75,68.09,72.88,68.09,69.65,66.55,69.65,64.62Zm5.29,0c0-1.41-.71-2.45-2.06-2.45s-2.07,1-2.07,2.45.72,2.46,2.07,2.46S74.94,66,74.94,64.62Z"/><path class="cls-2" d="M77.38,67.57v-1.1a4.82,4.82,0,0,0,2.44.62c.93,0,1.24-.43,1.24-1s-.35-.8-1-1L79.31,65c-1-.23-1.78-.68-1.78-1.93s.76-1.88,2.29-1.88a5.15,5.15,0,0,1,2.07.43v1a4.6,4.6,0,0,0-2-.48c-.9,0-1.18.43-1.18.86,0,.59.41.79,1,.93l.78.18c1,.26,1.8.65,1.8,2s-1,2-2.38,2A5.2,5.2,0,0,1,77.38,67.57Z"/><path class="cls-2" d="M24.6,49.21c0-2.57,1.4-4.67,4.39-4.67a5.15,5.15,0,0,1,2.18.44V46A4.9,4.9,0,0,0,29,45.55c-2,0-3.25,1.55-3.24,3.66s1.15,3.67,3.21,3.67a5.63,5.63,0,0,0,2.52-.69l.37,1a6.49,6.49,0,0,1-2.89.72C26,53.88,24.6,52,24.6,49.21Z"/><path class="cls-2" d="M36.32,52.89a4.32,4.32,0,0,0,1.89-.49l.35.93a4.92,4.92,0,0,1-2.34.55c-2.13,0-3.26-1.42-3.26-3.48,0-2.26,1.33-3.45,3-3.45S38.7,48,38.7,50.06v.44H34.12C34.15,51.81,34.7,52.89,36.32,52.89Zm-2.13-3.33h3.34c-.09-1.11-.6-1.62-1.59-1.62A1.69,1.69,0,0,0,34.19,49.56Z"/><path class="cls-2" d="M45.78,49.74v3.94H44.66V49.74c0-1.22-.35-1.71-1.42-1.71a2.8,2.8,0,0,0-1.84.81v4.84H40.28V47.13H41.4v.7a3.06,3.06,0,0,1,2-.84C45,47,45.78,47.74,45.78,49.74Z"/><path class="cls-2" d="M49.18,48.25V52c0,.63.16.82.7.82a2.91,2.91,0,0,0,.76-.1v1a4.12,4.12,0,0,1-1,.12c-1.22,0-1.62-.48-1.62-1.6v-4h-.85v-1h.85V45h1.11v2.25H50.7v1Z"/><path class="cls-2" d="M55.62,47v1h-.27a3.13,3.13,0,0,0-2,.82v4.83H52.26V47.13h1.11v.74a3.05,3.05,0,0,1,2-.88Z"/><path class="cls-2" d="M61.54,49.89v3.79H60.43V53a2.57,2.57,0,0,1-1.87.81,2.1,2.1,0,0,1-2.19-2.23,2.17,2.17,0,0,1,2.45-2.24,3.44,3.44,0,0,1,1.6.39c0-1-.19-1.63-1.54-1.63H58v-1h1.06C61.25,47.13,61.54,48.33,61.54,49.89Zm-1.11,2.23V50.63A3.15,3.15,0,0,0,59,50.3c-.73,0-1.49.28-1.49,1.31a1.15,1.15,0,0,0,1.21,1.27A2.69,2.69,0,0,0,60.43,52.12Z"/><path class="cls-2" d="M63.38,52.29V43.67h1.11V52c0,.63.15.82.71.82a2.73,2.73,0,0,0,.59-.07v1a4.13,4.13,0,0,1-.74.09C63.87,53.84,63.38,53.41,63.38,52.29Z"/><path class="cls-2" d="M16.36,57.87v10H15.25v-.6a3,3,0,0,1-1.9.8c-1.7,0-2.91-1.14-2.91-3.47s1.21-3.47,2.91-3.47a3,3,0,0,1,1.9.8V57.87Zm-1.11,8.45V62.93a2.72,2.72,0,0,0-1.75-.74c-1.25,0-1.9.84-1.9,2.43s.65,2.44,1.9,2.44A2.78,2.78,0,0,0,15.25,66.32Z"/><path class="cls-2" d="M21.45,67.09a4.38,4.38,0,0,0,1.9-.48l.34.92a4.89,4.89,0,0,1-2.33.56c-2.13,0-3.27-1.42-3.27-3.48,0-2.26,1.34-3.46,3-3.46s2.76,1.06,2.76,3.11v.44H19.25C19.28,66,19.83,67.09,21.45,67.09Zm-2.13-3.32h3.34c-.08-1.12-.59-1.63-1.59-1.63A1.69,1.69,0,0,0,19.32,63.77Z"/><path class="cls-2" d="M31.38,61.2v1h-.27a3.07,3.07,0,0,0-2,.82v4.83H28V61.34h1.11v.73a3,3,0,0,1,2-.87Z"/><path class="cls-2" d="M35.76,67.09a4.38,4.38,0,0,0,1.9-.48l.34.92a4.89,4.89,0,0,1-2.33.56c-2.13,0-3.27-1.42-3.27-3.48,0-2.26,1.34-3.46,3-3.46s2.76,1.06,2.76,3.11v.44H33.56C33.59,66,34.14,67.09,35.76,67.09Zm-2.13-3.32H37c-.08-1.12-.59-1.63-1.59-1.63A1.69,1.69,0,0,0,33.63,63.77Z"/><path class="cls-2" d="M39.73,66.49V57.87h1.11v8.32c0,.63.15.82.71.82a2.22,2.22,0,0,0,.59-.07v1a5.2,5.2,0,0,1-.74.08C40.22,68,39.73,67.61,39.73,66.49Z"/><path class="cls-2" d="M48,64.1v3.79H46.89v-.65A2.57,2.57,0,0,1,45,68a2.1,2.1,0,0,1-2.19-2.23,2.17,2.17,0,0,1,2.45-2.23,3.44,3.44,0,0,1,1.6.39c0-1-.19-1.64-1.54-1.64h-.88v-1h1C47.71,61.34,48,62.54,48,64.1Zm-1.11,2.22V64.83a3.19,3.19,0,0,0-1.45-.33c-.72,0-1.48.28-1.48,1.31a1.15,1.15,0,0,0,1.21,1.27A2.69,2.69,0,0,0,46.89,66.32Z"/><path class="cls-2" d="M51.17,62.45v3.74c0,.63.16.82.7.82a3.44,3.44,0,0,0,.76-.09v1a4.12,4.12,0,0,1-1,.12c-1.22,0-1.62-.47-1.62-1.6v-4h-.85v-1h.85V59.17h1.11v2.25h1.52v1Z"/><path class="cls-2" d="M53.85,64.62c0-1.92,1.07-3.47,3.23-3.47s3.22,1.55,3.22,3.47-1.07,3.47-3.22,3.47S53.85,66.55,53.85,64.62Zm5.29,0c0-1.41-.71-2.45-2.06-2.45S55,63.21,55,64.62s.72,2.46,2.07,2.46S59.14,66,59.14,64.62Zm-1.43-6.31H59l-1.43,1.81H56.46Z"/><path class="cls-2" d="M65.39,61.2v1h-.27a3.05,3.05,0,0,0-2,.82v4.83H62V61.34h1.11v.73a3,3,0,0,1,2-.87Z"/><path class="cls-2" d="M66.81,58.32h1.11v1.79H66.81Zm0,3h1.11v6.55H66.81Z"/><path class="cls-2" d="M69.65,64.62c0-1.92,1.08-3.47,3.23-3.47s3.22,1.55,3.22,3.47S75,68.09,72.88,68.09,69.65,66.55,69.65,64.62Zm5.29,0c0-1.41-.71-2.45-2.06-2.45s-2.07,1-2.07,2.45.72,2.46,2.07,2.46S74.94,66,74.94,64.62Z"/><path class="cls-2" d="M77.38,67.57v-1.1a4.82,4.82,0,0,0,2.44.62c.93,0,1.24-.43,1.24-1s-.35-.8-1-1L79.31,65c-1-.23-1.78-.68-1.78-1.93s.76-1.88,2.29-1.88a5.15,5.15,0,0,1,2.07.43v1a4.6,4.6,0,0,0-2-.48c-.9,0-1.18.43-1.18.86,0,.59.41.79,1,.93l.78.18c1,.26,1.8.65,1.8,2s-1,2-2.38,2A5.2,5.2,0,0,1,77.38,67.57Z"/></g></g></svg>