<svg xmlns="http://www.w3.org/2000/svg" viewBox="0 0 171.188 193.348"><defs><style>.a{fill:#6a4b9d;}.b{fill:#09d6b4;}.c{fill:#5a5a5a;}.d{fill:#818181;}</style></defs><g transform="translate(47.296)"><g transform="translate(20.822 22.309)"><rect class="a" width="11.898" height="21.417"/></g><g transform="translate(44.024 22.309)"><rect class="a" width="11.898" height="21.417"/></g><g transform="translate(11.597)"><path class="b" d="M93.293,16.955H84.815c0-1.933-.446-8.478-5.652-8.478H53.73c-5.206,0-5.652,6.544-5.652,8.478H39.6C39.452,8.478,43.914,0,53.73,0H79.163C88.831,0,93.293,8.478,93.293,16.955Z" transform="translate(-39.598)"/></g><g transform="translate(0 22.309)"><path class="a" d="M97.687,15c0,3.867-.3,10.857-.744,15.914-.595,5.8-1.041,11.75-2.38,16.658C91.738,49.059,81.773,50.4,70.172,50.4h0c-11.6,0-21.566-1.339-24.392-2.826C44.442,42.664,44,36.715,43.4,30.914c-.446-5.057-.744-12.047-.744-15.914H31.8c0,4.016.3,10.411.744,15.617.595,6.693,1.339,14.724,3.123,20.822,1.636,5.8,9.221,7.585,16.36,8.626a152.534,152.534,0,0,0,18.294,1.19h0a152.534,152.534,0,0,0,18.294-1.19c7.139-1.041,14.576-2.826,16.36-8.626,1.785-6.1,2.528-14.129,3.123-20.822.446-5.354.744-11.6.744-15.617Z" transform="translate(-31.8 -15)"/></g></g><g transform="translate(0 89.981)"><path class="c" d="M34.505,90.1v20.376a1.333,1.333,0,0,1-1.339,1.339H26.028a1.333,1.333,0,0,1-1.339-1.339V90.1c0-4.164-1.487-6.4-6.247-6.4a12.8,12.8,0,0,0-8.329,3.421v23.351a1.333,1.333,0,0,1-1.339,1.339H1.339A1.333,1.333,0,0,1,0,110.473V61.839A1.333,1.333,0,0,1,1.339,60.5H8.478a1.333,1.333,0,0,1,1.339,1.339V78.645a15.634,15.634,0,0,1,10.411-3.867C29.6,74.778,34.505,79.091,34.505,90.1Z" transform="translate(0 -60.5)"/><g transform="translate(64.102 13.981)"><path class="c" d="M79.39,89.086c0,12.939-6.99,19.186-16.509,19.186a16.485,16.485,0,0,1-9.965-3.718v14.129a1.333,1.333,0,0,1-1.339,1.339H44.439a1.333,1.333,0,0,1-1.339-1.339V72.28a1.333,1.333,0,0,1,1.339-1.339h7.139a1.333,1.333,0,0,1,1.339,1.339v1.339A15.612,15.612,0,0,1,62.881,69.9C72.4,69.9,79.39,76.3,79.39,89.086Zm-10.262,0c0-6.693-2.826-10.262-8.18-10.262A13.287,13.287,0,0,0,53.065,81.8V96.671a13.287,13.287,0,0,0,7.883,2.975C66.3,99.5,69.128,95.928,69.128,89.086Z" transform="translate(-43.1 -69.9)"/></g><g transform="translate(107.234 13.832)"><path class="c" d="M92.773,100.141a19.874,19.874,0,0,0,8.775-2.082,1.476,1.476,0,0,1,1.933.744l1.785,5.206a1.325,1.325,0,0,1-.744,1.636c-4.016,2.082-7.883,2.677-12.939,2.677-12.642,0-19.484-7.883-19.484-19.335C72.1,76.493,79.983,69.8,89.65,69.8c10.114,0,16.658,5.949,16.658,18v2.528a1.333,1.333,0,0,1-1.339,1.339H82.511C83.255,96.571,85.783,100.141,92.773,100.141ZM82.809,84.375H96.64c-.446-4.462-2.528-6.4-6.693-6.4C86.229,77.98,83.7,79.616,82.809,84.375Z" transform="translate(-72.1 -69.8)"/></g><g transform="translate(149.771 14.278)"><path class="c" d="M122.117,71.439v6.1a1.333,1.333,0,0,1-1.339,1.339,24.321,24.321,0,0,0-3.272.3,18.057,18.057,0,0,0-6.99,3.421v23.053a1.333,1.333,0,0,1-1.339,1.339h-7.139a1.333,1.333,0,0,1-1.339-1.339V72.182a1.333,1.333,0,0,1,1.339-1.339h7.139a1.333,1.333,0,0,1,1.339,1.339v2.082c2.826-2.38,5.5-3.867,8.626-4.164h1.636A1.333,1.333,0,0,1,122.117,71.439Z" transform="translate(-100.7 -70.1)"/></g><g transform="translate(44.024 1.041)"><g transform="translate(0 13.981)"><path class="c" d="M30.939,70.6h7.139a1.333,1.333,0,0,1,1.339,1.339v33.613a1.333,1.333,0,0,1-1.339,1.339H30.939a1.333,1.333,0,0,1-1.339-1.339V72.087A1.373,1.373,0,0,1,30.939,70.6Z" transform="translate(-29.6 -70.6)"/></g><g transform="translate(0.149)"><path class="c" d="M39.219,62.687A7.146,7.146,0,0,0,34.608,61.2h0A8.494,8.494,0,0,0,30,62.687a1.136,1.136,0,0,0-.3.744v5.057a1.57,1.57,0,0,0,.3.744,7.146,7.146,0,0,0,4.611,1.487h0a8.494,8.494,0,0,0,4.611-1.487,1.136,1.136,0,0,0,.3-.744V63.431A1.136,1.136,0,0,0,39.219,62.687Z" transform="translate(-29.7 -61.2)"/></g></g></g><g transform="translate(35.249 168.808)"><path class="d" d="M42.737,115.2l-8.031,21.715H31.731L23.7,115.2h2.826l6.693,18.294L39.912,115.2h2.826Z" transform="translate(-23.7 -112.672)"/><path class="d" d="M46.183,132.929a10.018,10.018,0,0,0,4.462-1.19l.892,2.231a12.018,12.018,0,0,1-5.5,1.339c-5.057,0-7.734-3.421-7.734-8.329,0-5.354,3.123-8.18,7.139-8.18s6.544,2.528,6.544,7.436v1.041H40.828C40.977,130.4,42.316,132.929,46.183,132.929Zm-5.057-7.883h8.031c-.149-2.677-1.339-3.867-3.718-3.867S41.572,122.37,41.126,125.047Z" transform="translate(-16.585 -110.917)"/><path class="d" d="M62.988,125.4v9.37H60.46V125.4c0-2.975-.892-4.016-3.421-4.016a6.735,6.735,0,0,0-4.462,1.934v11.6H49.9V119.3h2.677v1.636A7.8,7.8,0,0,1,57.336,119C61.055,118.854,62.988,120.639,62.988,125.4Z" transform="translate(-10.933 -110.823)"/><path class="d" d="M75.529,113.5v23.945H72.852v-1.339a6.735,6.735,0,0,1-4.462,1.933c-4.016,0-6.99-2.677-6.99-8.329,0-5.5,2.826-8.329,6.99-8.329a6.735,6.735,0,0,1,4.462,1.933v-9.667h2.677Zm-2.677,20.227V125.7a6.569,6.569,0,0,0-4.164-1.785q-4.462,0-4.462,5.8c0,3.718,1.487,5.8,4.462,5.8A6.253,6.253,0,0,0,72.852,133.727Z" transform="translate(-5.329 -113.5)"/><path class="d" d="M85.545,125.644v9.073H82.867v-1.487a6.343,6.343,0,0,1-4.462,1.934,4.958,4.958,0,0,1-5.206-5.354c0-3.421,2.38-5.354,5.8-5.354a8.677,8.677,0,0,1,3.867.892c0-2.528-.446-3.867-3.718-3.867H77.067V119.1H79.6C84.95,119.1,85.545,121.926,85.545,125.644ZM83.016,131v-3.57a7.509,7.509,0,0,0-3.421-.744c-1.785,0-3.57.744-3.57,3.123a2.672,2.672,0,0,0,2.826,2.975A7.09,7.09,0,0,0,83.016,131Z" transform="translate(0.421 -110.771)"/><path class="d" d="M83.8,134.168v-2.677a12.029,12.029,0,0,0,5.8,1.487c2.231,0,2.975-1.041,2.975-2.38,0-1.487-.892-1.933-2.38-2.38l-1.785-.446c-2.231-.595-4.164-1.636-4.164-4.611,0-2.826,1.785-4.462,5.5-4.462a11.973,11.973,0,0,1,4.908,1.041v2.528a10.311,10.311,0,0,0-4.908-1.19c-2.082,0-2.826,1.041-2.826,2.082,0,1.339,1.041,1.933,2.231,2.231l1.933.446c2.528.595,4.313,1.487,4.313,4.759,0,3.123-2.38,4.759-5.652,4.759A12.155,12.155,0,0,1,83.8,134.168Z" transform="translate(5.586 -110.966)"/></g></svg>