<svg xmlns="http://www.w3.org/2000/svg" viewBox="0 0 90.02 68.38"><defs><style>.cls-1{fill:#5a5a5a;}.cls-2{fill:#828282;}</style></defs><title>Ativo 32</title><g id="Camada_2" data-name="Camada 2"><g id="Camada_1-2" data-name="Camada 1"><path class="cls-1" d="M18.11,15.55V26.28a.73.73,0,0,1-.73.73H13.61a.73.73,0,0,1-.73-.73V15.55c0-2.17-.81-3.36-3.32-3.36A6.67,6.67,0,0,0,5.22,14V26.28a.73.73,0,0,1-.73.73H.73A.73.73,0,0,1,0,26.28V.72A.73.73,0,0,1,.73,0H4.49a.72.72,0,0,1,.73.72V9.58a8.28,8.28,0,0,1,5.46-2.07C15.56,7.51,18.11,9.82,18.11,15.55Z"/><path class="cls-1" d="M52.79,17.48c0,6.78-3.67,10.1-8.69,10.1a8.46,8.46,0,0,1-5.22-1.93v7.41a.73.73,0,0,1-.72.73H34.39a.73.73,0,0,1-.73-.73V8.64a.73.73,0,0,1,.73-.72h3.77a.72.72,0,0,1,.72.72v.7a8.32,8.32,0,0,1,5.22-2C49.12,7.38,52.79,10.73,52.79,17.48Zm-5.43,0c0-3.53-1.46-5.43-4.34-5.43a7.06,7.06,0,0,0-4.14,1.53v7.8A7.17,7.17,0,0,0,43,22.94C45.9,22.94,47.36,21,47.36,17.48Z"/><path class="cls-1" d="M67.22,23.21a10.79,10.79,0,0,0,4.6-1.09.72.72,0,0,1,1,.43l.93,2.71a.73.73,0,0,1-.37.89,14.24,14.24,0,0,1-6.82,1.43c-6.68,0-10.24-4.13-10.24-10.13,0-6.58,4.14-10.07,9.22-10.07,5.33,0,8.75,3.15,8.75,9.46v1.34a.72.72,0,0,1-.73.72H61.86C62.2,21.34,63.59,23.21,67.22,23.21ZM62,14.94h7.26c-.25-2.34-1.37-3.38-3.49-3.38C63.83,11.56,62.47,12.46,62,14.94Z"/><path class="cls-1" d="M90,8.25v3.22a.74.74,0,0,1-.71.73,8.93,8.93,0,0,0-1.7.18,9.94,9.94,0,0,0-3.69,1.78V26.28a.73.73,0,0,1-.73.73H79.42a.73.73,0,0,1-.72-.73V8.64a.72.72,0,0,1,.72-.72h3.77a.73.73,0,0,1,.73.72V9.75a8.4,8.4,0,0,1,4.53-2.2l.83,0A.72.72,0,0,1,90,8.25Z"/><path class="cls-1" d="M23.88,7.95h3.77a.72.72,0,0,1,.72.72V26.31a.72.72,0,0,1-.72.72H23.88a.73.73,0,0,1-.73-.73V8.68A.73.73,0,0,1,23.88,7.95Z"/><path class="cls-1" d="M28.19,1.37a3.84,3.84,0,0,0-2.4-.81h-.05a3.81,3.81,0,0,0-2.39.81.5.5,0,0,0-.18.36v2.7a.5.5,0,0,0,.18.36,3.81,3.81,0,0,0,2.39.81h.05a3.84,3.84,0,0,0,2.4-.81.53.53,0,0,0,.17-.36V1.73A.53.53,0,0,0,28.19,1.37Z"/><path class="cls-2" d="M23.05,49.5c0-2.57,1.4-4.66,4.39-4.66a5.3,5.3,0,0,1,2.18.43v1.06a4.93,4.93,0,0,0-2.16-.49c-2,0-3.24,1.55-3.23,3.66s1.15,3.67,3.21,3.67A5.62,5.62,0,0,0,30,52.49l.37,1a6.62,6.62,0,0,1-2.89.72C24.48,54.18,23.05,52.27,23.05,49.5Z"/><path class="cls-2" d="M34.77,53.18a4.3,4.3,0,0,0,1.89-.48l.35.92a4.93,4.93,0,0,1-2.34.56c-2.13,0-3.26-1.42-3.26-3.48,0-2.26,1.33-3.46,3-3.46s2.76,1.07,2.76,3.11v.44H32.57C32.6,52.11,33.15,53.18,34.77,53.18Zm-2.13-3.32H36c-.09-1.12-.6-1.63-1.59-1.63A1.69,1.69,0,0,0,32.64,49.86Z"/><path class="cls-2" d="M44.23,50V54H43.11V50c0-1.22-.35-1.7-1.42-1.7a2.84,2.84,0,0,0-1.84.8V54H38.73V47.43h1.12v.7a3.06,3.06,0,0,1,2-.84C43.42,47.29,44.23,48,44.23,50Z"/><path class="cls-2" d="M47.63,48.54v3.74c0,.63.16.82.7.82a2.93,2.93,0,0,0,.76-.09v1a4.12,4.12,0,0,1-1,.12c-1.22,0-1.62-.47-1.62-1.6v-4h-.85v-1h.85V45.26h1.11v2.25h1.52v1Z"/><path class="cls-2" d="M54.07,47.29v1H53.8a3.07,3.07,0,0,0-2,.82V54H50.71V47.43h1.11v.73a3,3,0,0,1,2-.87Z"/><path class="cls-2" d="M60,50.19V54H58.88v-.65a2.56,2.56,0,0,1-1.87.8,2.1,2.1,0,0,1-2.19-2.22,2.17,2.17,0,0,1,2.45-2.24,3.44,3.44,0,0,1,1.6.39c0-1-.19-1.64-1.54-1.64h-.88v-1h1.06C59.7,47.43,60,48.63,60,50.19Zm-1.11,2.22V50.92a3.28,3.28,0,0,0-1.44-.33c-.73,0-1.49.29-1.49,1.32a1.15,1.15,0,0,0,1.21,1.26A2.64,2.64,0,0,0,58.88,52.41Z"/><path class="cls-2" d="M61.83,52.58V44h1.11v8.32c0,.63.15.82.71.82a2.22,2.22,0,0,0,.59-.07v1a4.07,4.07,0,0,1-.74.08C62.32,54.13,61.83,53.71,61.83,52.58Z"/><path class="cls-2" d="M23.56,58.16v10H22.45v-.59a3,3,0,0,1-1.9.79c-1.7,0-2.91-1.13-2.91-3.47s1.21-3.47,2.91-3.47a3,3,0,0,1,1.9.81V58.16Zm-1.11,8.46v-3.4a2.74,2.74,0,0,0-1.76-.73c-1.24,0-1.89.84-1.89,2.42s.65,2.44,1.89,2.44A2.85,2.85,0,0,0,22.45,66.62Z"/><path class="cls-2" d="M28.65,67.39a4.32,4.32,0,0,0,1.89-.49l.35.93a4.92,4.92,0,0,1-2.34.55c-2.13,0-3.26-1.42-3.26-3.48,0-2.26,1.33-3.46,3-3.46S31,62.51,31,64.56V65H26.45C26.48,66.31,27,67.39,28.65,67.39Zm-2.13-3.33h3.34c-.09-1.11-.6-1.62-1.59-1.62A1.68,1.68,0,0,0,26.52,64.06Z"/><path class="cls-2" d="M40.64,61.63l-2.48,6.66H36.89l-2.5-6.66h1.16l2,5.43,2-5.43Z"/><path class="cls-2" d="M43.12,58.6h1.32L43,60.41H41.88Zm-1.18,3h1.11v6.55H41.94Z"/><path class="cls-2" d="M50.7,58.16v10H49.59v-.59a3,3,0,0,1-1.9.79c-1.7,0-2.91-1.13-2.91-3.47s1.21-3.47,2.91-3.47a3,3,0,0,1,1.9.81V58.16Zm-1.11,8.46v-3.4a2.72,2.72,0,0,0-1.76-.73c-1.24,0-1.89.84-1.89,2.42s.65,2.44,1.89,2.44A2.82,2.82,0,0,0,49.59,66.62Z"/><path class="cls-2" d="M55.79,67.39a4.32,4.32,0,0,0,1.89-.49l.35.93a4.92,4.92,0,0,1-2.34.55c-2.13,0-3.26-1.42-3.26-3.48,0-2.26,1.33-3.46,3-3.46s2.76,1.07,2.76,3.12V65H53.59C53.62,66.31,54.17,67.39,55.79,67.39Zm-2.13-3.33H57c-.09-1.11-.59-1.62-1.59-1.62A1.68,1.68,0,0,0,53.66,64.06Z"/><path class="cls-2" d="M59.35,64.91c0-1.91,1.08-3.47,3.23-3.47S65.8,63,65.8,64.91s-1.06,3.47-3.22,3.47S59.35,66.84,59.35,64.91Zm5.29,0c0-1.41-.71-2.45-2.06-2.45s-2.07,1-2.07,2.45.72,2.47,2.07,2.47S64.64,66.32,64.64,64.91Z"/><path class="cls-2" d="M67.08,67.86v-1.1a4.86,4.86,0,0,0,2.44.63c.94,0,1.24-.44,1.24-1s-.35-.81-1-1L69,65.26c-1-.24-1.78-.69-1.78-1.93s.76-1.89,2.29-1.89a5.15,5.15,0,0,1,2.07.43v1a4.74,4.74,0,0,0-2-.47c-.9,0-1.19.43-1.19.85,0,.59.42.79.95.94l.78.17c1.05.27,1.8.66,1.8,2s-1,2-2.38,2A5.22,5.22,0,0,1,67.08,67.86Z"/><path class="cls-2" d="M23.05,49.5c0-2.57,1.4-4.66,4.39-4.66a5.3,5.3,0,0,1,2.18.43v1.06a4.93,4.93,0,0,0-2.16-.49c-2,0-3.24,1.55-3.23,3.66s1.15,3.67,3.21,3.67A5.62,5.62,0,0,0,30,52.49l.37,1a6.62,6.62,0,0,1-2.89.72C24.48,54.18,23.05,52.27,23.05,49.5Z"/><path class="cls-2" d="M34.77,53.18a4.3,4.3,0,0,0,1.89-.48l.35.92a4.93,4.93,0,0,1-2.34.56c-2.13,0-3.26-1.42-3.26-3.48,0-2.26,1.33-3.46,3-3.46s2.76,1.07,2.76,3.11v.44H32.57C32.6,52.11,33.15,53.18,34.77,53.18Zm-2.13-3.32H36c-.09-1.12-.6-1.63-1.59-1.63A1.69,1.69,0,0,0,32.64,49.86Z"/><path class="cls-2" d="M44.23,50V54H43.11V50c0-1.22-.35-1.7-1.42-1.7a2.84,2.84,0,0,0-1.84.8V54H38.73V47.43h1.12v.7a3.06,3.06,0,0,1,2-.84C43.42,47.29,44.23,48,44.23,50Z"/><path class="cls-2" d="M47.63,48.54v3.74c0,.63.16.82.7.82a2.93,2.93,0,0,0,.76-.09v1a4.12,4.12,0,0,1-1,.12c-1.22,0-1.62-.47-1.62-1.6v-4h-.85v-1h.85V45.26h1.11v2.25h1.52v1Z"/><path class="cls-2" d="M54.07,47.29v1H53.8a3.07,3.07,0,0,0-2,.82V54H50.71V47.43h1.11v.73a3,3,0,0,1,2-.87Z"/><path class="cls-2" d="M60,50.19V54H58.88v-.65a2.56,2.56,0,0,1-1.87.8,2.1,2.1,0,0,1-2.19-2.22,2.17,2.17,0,0,1,2.45-2.24,3.44,3.44,0,0,1,1.6.39c0-1-.19-1.64-1.54-1.64h-.88v-1h1.06C59.7,47.43,60,48.63,60,50.19Zm-1.11,2.22V50.92a3.28,3.28,0,0,0-1.44-.33c-.73,0-1.49.29-1.49,1.32a1.15,1.15,0,0,0,1.21,1.26A2.64,2.64,0,0,0,58.88,52.41Z"/><path class="cls-2" d="M61.83,52.58V44h1.11v8.32c0,.63.15.82.71.82a2.22,2.22,0,0,0,.59-.07v1a4.07,4.07,0,0,1-.74.08C62.32,54.13,61.83,53.71,61.83,52.58Z"/><path class="cls-2" d="M23.56,58.16v10H22.45v-.59a3,3,0,0,1-1.9.79c-1.7,0-2.91-1.13-2.91-3.47s1.21-3.47,2.91-3.47a3,3,0,0,1,1.9.81V58.16Zm-1.11,8.46v-3.4a2.74,2.74,0,0,0-1.76-.73c-1.24,0-1.89.84-1.89,2.42s.65,2.44,1.89,2.44A2.85,2.85,0,0,0,22.45,66.62Z"/><path class="cls-2" d="M28.65,67.39a4.32,4.32,0,0,0,1.89-.49l.35.93a4.92,4.92,0,0,1-2.34.55c-2.13,0-3.26-1.42-3.26-3.48,0-2.26,1.33-3.46,3-3.46S31,62.51,31,64.56V65H26.45C26.48,66.31,27,67.39,28.65,67.39Zm-2.13-3.33h3.34c-.09-1.11-.6-1.62-1.59-1.62A1.68,1.68,0,0,0,26.52,64.06Z"/><path class="cls-2" d="M40.64,61.63l-2.48,6.66H36.89l-2.5-6.66h1.16l2,5.43,2-5.43Z"/><path class="cls-2" d="M43.12,58.6h1.32L43,60.41H41.88Zm-1.18,3h1.11v6.55H41.94Z"/><path class="cls-2" d="M50.7,58.16v10H49.59v-.59a3,3,0,0,1-1.9.79c-1.7,0-2.91-1.13-2.91-3.47s1.21-3.47,2.91-3.47a3,3,0,0,1,1.9.81V58.16Zm-1.11,8.46v-3.4a2.72,2.72,0,0,0-1.76-.73c-1.24,0-1.89.84-1.89,2.42s.65,2.44,1.89,2.44A2.82,2.82,0,0,0,49.59,66.62Z"/><path class="cls-2" d="M55.79,67.39a4.32,4.32,0,0,0,1.89-.49l.35.93a4.92,4.92,0,0,1-2.34.55c-2.13,0-3.26-1.42-3.26-3.48,0-2.26,1.33-3.46,3-3.46s2.76,1.07,2.76,3.12V65H53.59C53.62,66.31,54.17,67.39,55.79,67.39Zm-2.13-3.33H57c-.09-1.11-.59-1.62-1.59-1.62A1.68,1.68,0,0,0,53.66,64.06Z"/><path class="cls-2" d="M59.35,64.91c0-1.91,1.08-3.47,3.23-3.47S65.8,63,65.8,64.91s-1.06,3.47-3.22,3.47S59.35,66.84,59.35,64.91Zm5.29,0c0-1.41-.71-2.45-2.06-2.45s-2.07,1-2.07,2.45.72,2.47,2.07,2.47S64.64,66.32,64.64,64.91Z"/><path class="cls-2" d="M67.08,67.86v-1.1a4.86,4.86,0,0,0,2.44.63c.94,0,1.24-.44,1.24-1s-.35-.81-1-1L69,65.26c-1-.24-1.78-.69-1.78-1.93s.76-1.89,2.29-1.89a5.15,5.15,0,0,1,2.07.43v1a4.74,4.74,0,0,0-2-.47c-.9,0-1.19.43-1.19.85,0,.59.42.79.95.94l.78.17c1.05.27,1.8.66,1.8,2s-1,2-2.38,2A5.22,5.22,0,0,1,67.08,67.86Z"/></g></g></svg>